<?xml version="1.0" encoding="utf-8"?>
<!-- Generator: Adobe Illustrator 19.1.0, SVG Export Plug-In . SVG Version: 6.00 Build 0)  -->
<svg version="1.1" id="Ebene_1" xmlns="http://www.w3.org/2000/svg" xmlns:xlink="http://www.w3.org/1999/xlink" x="0px" y="0px"
	 viewBox="0 0 90 100" style="enable-background:new 0 0 90 100;" xml:space="preserve">
<style type="text/css">
	.st0{fill:#EF233C;}
</style>
<g>
	<path class="st0" d="M40.2,80.3C18,80.3,0,62.3,0,40.2S18,0,40.2,0s40.2,18,40.2,40.2S62.3,80.3,40.2,80.3z M40.2,15.9
		c-13.4,0-24.3,10.9-24.3,24.3s10.9,24.3,24.3,24.3s24.3-10.9,24.3-24.3S53.5,15.9,40.2,15.9z"/>
	<path class="st0" d="M40.2,52.7c-6.9,0-12.5-5.6-12.5-12.5s5.6-12.5,12.5-12.5s12.5,5.6,12.5,12.5S47,52.7,40.2,52.7z"/>
	<path class="st0" d="M67.2,95.2C63,89.8,64,81.9,69.4,77.6c5.4-4.2,13.3-3.3,17.6,2.2c4.2,5.4,3.3,13.3-2.2,17.6
		S71.5,100.6,67.2,95.2z"/>
</g>
</svg>
