<?xml version="1.0" encoding="utf-8"?>
<!-- Generator: Adobe Illustrator 19.1.0, SVG Export Plug-In . SVG Version: 6.00 Build 0)  -->
<svg version="1.1" id="Ebene_2" xmlns="http://www.w3.org/2000/svg" xmlns:xlink="http://www.w3.org/1999/xlink" x="0px" y="0px"
	 viewBox="0 0 283.5 141.7" style="enable-background:new 0 0 283.5 141.7;" xml:space="preserve">
<style type="text/css">
	.st0{fill:#EF233C;}
</style>
<g>
	<polygon class="st0" points="20.2,92.5 20.2,34.2 32.9,34.2 32.9,79.7 63.1,79.7 63.1,92.5 	"/>
	<rect x="76.9" y="34.2" class="st0" width="12.8" height="58.3"/>
	<rect x="181.9" y="34.2" class="st0" width="12.8" height="58.3"/>
	<path class="st0" d="M210.9,92.5V34.2h23.2c8.6,0,15.9,2.9,21.3,8.5c5.1,5.3,7.9,12.6,7.9,20.6c0,16.1-13.1,29.3-29.2,29.3H210.9z
		 M223.7,79.7h11.8c8.4-0.3,15-7.5,15-16.5c0-9-6.7-16.3-15-16.3h-11.8V79.7z"/>
	<path class="st0" d="M135.7,94.1c-17,0-30.8-13.8-30.8-30.8s13.8-30.8,30.8-30.8s30.8,13.8,30.8,30.8S152.7,94.1,135.7,94.1z
		 M135.7,44.7c-10.2,0-18.6,8.3-18.6,18.6s8.3,18.6,18.6,18.6c10.2,0,18.6-8.3,18.6-18.6S145.9,44.7,135.7,44.7z"/>
	<path class="st0" d="M135.7,72.9c-5.3,0-9.6-4.3-9.6-9.6s4.3-9.6,9.6-9.6c5.3,0,9.6,4.3,9.6,9.6S141,72.9,135.7,72.9z"/>
	<path class="st0" d="M156.4,105.5c-3.3-4.2-2.5-10.2,1.7-13.5s10.2-2.5,13.5,1.7c3.3,4.2,2.5,10.2-1.7,13.5
		S159.7,109.7,156.4,105.5z"/>
</g>
</svg>
