<?xml version="1.0" encoding="UTF-8" standalone="no"?>
<svg width="52px" height="52px" viewBox="0 0 52 52" version="1.1" xmlns="http://www.w3.org/2000/svg" xmlns:xlink="http://www.w3.org/1999/xlink" xmlns:sketch="http://www.bohemiancoding.com/sketch/ns">
    <!-- Generator: Sketch 3.4.3 (16044) - http://www.bohemiancoding.com/sketch -->
    <title>company_circle</title>
    <desc>Created with Sketch.</desc>
    <defs></defs>
    <g id="2-0_registration" stroke="none" stroke-width="1" fill="none" fill-rule="evenodd" sketch:type="MSPage">
        <g id="2-11_account-type" sketch:type="MSArtboardGroup" transform="translate(-1125.000000, -307.000000)">
            <g id="tiles" sketch:type="MSLayerGroup" transform="translate(172.000000, 262.000000)">
                <g id="tile" transform="translate(862.000000, 32.000000)" sketch:type="MSShapeGroup">
                    <g id="content" transform="translate(62.000000, 14.000000)">
                        <g id="company_circle" transform="translate(30.000000, 0.000000)">
                            <g id="Company">
                                <g id="Group">
                                    <circle id="Oval" stroke="#FFFFFF" stroke-width="2" fill="#EF233C" cx="25" cy="25" r="25"></circle>
                                    <circle id="Oval" stroke="#FFFFFF" stroke-width="2" cx="25.3012048" cy="25.3012048" r="16.8674699"></circle>
                                    <path d="M26.8754642,37.8859081 C27.4707573,37.5716386 27.7105931,36.8469519 27.3927144,36.2496736 C27.3927144,36.2496736 26.8005636,35.1402688 26.4742843,34.5373648 C26.3081948,35.3176687 25.8507753,35.5802206 24.7715141,36.5118419 L25.2385527,37.3881655 C25.4499801,37.7820253 26.2706162,38.2093833 26.8754642,37.8859081 L26.8754642,37.8859081 Z M23.7410537,36.4761701 L25.402013,35.0420116 C25.9597274,34.5551367 25.931768,33.7261197 25.4538919,33.2662224 C24.9933943,32.800252 24.2612537,32.8054301 23.8051168,33.2023585 L22.1437086,34.6408001 C21.6317809,35.0816469 21.5903548,35.8480146 22.0298828,36.3544514 C22.4124017,36.7891611 23.1772471,36.9560768 23.7410537,36.4761701 L23.7410537,36.4761701 Z M29.5743227,36.4609553 C30.2079638,36.1227767 30.3889308,35.3915054 30.0923424,34.8199261 L28.2133505,31.3222389 L28.7475303,30.987065 L30.8375649,34.9194618 C31.1494156,35.5050414 31.8732196,35.7276383 32.4745406,35.4215516 C33.1002941,35.0850351 33.3000504,34.3600288 32.9916625,33.7809699 L30.8188397,29.7016028 L31.3721936,29.3707759 C31.3721936,29.3707759 32.809413,32.128178 33.3270479,33.1106219 C33.6470428,33.7052792 34.3875199,33.9187345 34.9649214,33.6083006 C35.5718856,33.2884054 35.7985753,32.5672348 35.4815945,31.9681664 C33.8542379,28.8956637 34.2079636,29.5421026 33.5446316,28.458333 C31.5858655,25.7466393 28.7300877,23.8851868 25.9178524,21.5634533 L20.920097,23.9030866 C19.8879052,24.3760252 18.8017182,23.8839721 18.3734766,23.0032375 C17.9059891,22.0330037 18.3176218,20.9018635 19.264332,20.4449708 L20.4600483,19.8854738 L16.6191481,19.8746061 L12.5502115,25.4254016 L15.2019364,27.85626 C15.3135819,27.611544 15.4788377,27.3920156 15.685135,27.2133371 L18.6625621,24.635956 C19.4562007,23.9599824 20.658009,24.028641 21.3609717,24.8263972 C21.7076435,25.2289512 21.8728993,25.7236253 21.8332046,26.2331306 C22.5278948,26.0766351 23.2338714,26.3244197 23.6891106,26.8425553 C24.247274,27.4841996 24.3187758,28.3862223 23.891432,29.0831003 C24.3366032,29.1547635 24.7369495,29.3760819 25.0303957,29.713813 C25.685327,30.4697604 25.6500571,31.5609457 25.0112216,32.2568648 C25.4490182,32.1924894 25.9666532,32.4233331 26.2104008,32.7971834 C26.2104008,32.7971834 27.477683,35.0916197 27.9380524,35.9618702 C28.1456963,36.3570724 28.9721039,36.7817455 29.5743227,36.4609553 L29.5743227,36.4609553 Z M21.7395147,34.1765557 L24.3907907,31.885188 C24.8891875,31.45783 24.9520322,30.6931884 24.4989734,30.1719842 C24.0694492,29.673858 23.3015257,29.6086516 22.7930609,30.0511605 C22.731114,30.1050517 20.1051682,32.3711679 20.0480308,32.4307487 C19.6263302,32.8811208 19.6198534,33.5797248 20.0336663,34.0561795 C20.4256761,34.5091086 21.2001406,34.6434212 21.7395147,34.1765557 L21.7395147,34.1765557 Z M19.4109269,32.1586076 L23.0477101,29.0161039 C23.5535457,28.5840152 23.6102341,27.8197572 23.161087,27.3029001 C22.7136714,26.7939062 21.9545333,26.7473667 21.4547898,27.1812453 L18.1341538,30.0455349 C17.3644988,30.5297887 17.2585606,31.5270639 17.7055274,32.0386789 C18.0770164,32.4733886 18.8602022,32.6390258 19.4109269,32.1586076 L19.4109269,32.1586076 Z M16.0340513,29.4556082 C15.5827238,28.9352351 15.6481336,28.1688674 16.1430675,27.7424044 L19.1213924,25.1645758 C19.6202381,24.7402863 20.3872639,24.7790266 20.8324992,25.2862945 C21.279466,25.8048776 21.2319477,26.558204 20.7234829,26.9994983 L17.7407974,29.5773269 C17.2742077,29.9846116 16.5089134,29.9963743 16.0340513,29.4556082 L16.0340513,29.4556082 Z M26.0234058,20.7414044 L20.6210717,23.2692414 C19.9852503,23.5652915 19.2845321,23.2748671 19.003719,22.6984932 C18.7011026,22.0681641 18.9771062,21.3604822 19.5688081,21.0731263 L25.0057067,18.5309695 C25.7613819,18.2562074 26.5157746,18.1323151 27.4433749,18.1323151 C29.3123629,18.1323151 33.149672,19.135216 34.9174673,19.6355796 L38.0929192,25.0342268 L36.2719625,26.1783444 C35.8358333,26.5952183 35.4791576,27.7707245 34.5242391,28.396259 C32.5692565,25.7553335 29.1517242,23.0023425 26.0234058,20.7414044 L26.0234058,20.7414044 Z M35.409259,18.530458 L38.7478506,16.4964641 L42.7635616,23.1922723 L39.2937015,25.1324201 L35.409259,18.530458 L35.409259,18.530458 Z M8,22.801481 L12.6911631,16 L16.1421698,18.7582331 L11.5591252,25.0971958 L8,22.801481 L8,22.801481 Z" id="Shape" fill="#FFFFFF"></path>
                                </g>
                            </g>
                        </g>
                    </g>
                </g>
            </g>
        </g>
    </g>
</svg>