<?xml version="1.0" encoding="UTF-8" standalone="no"?>
<svg width="52px" height="52px" viewBox="0 0 52 52" version="1.1" xmlns="http://www.w3.org/2000/svg" xmlns:xlink="http://www.w3.org/1999/xlink" xmlns:sketch="http://www.bohemiancoding.com/sketch/ns">
    <!-- Generator: Sketch 3.4.3 (16044) - http://www.bohemiancoding.com/sketch -->
    <title>User</title>
    <desc>Created with Sketch.</desc>
    <defs>
        <circle id="path-1" cx="17.3012048" cy="17.3012048" r="16.8674699"></circle>
    </defs>
    <g id="2-0_registration" stroke="none" stroke-width="1" fill="none" fill-rule="evenodd" sketch:type="MSPage">
        <g id="2-11_account-type" sketch:type="MSArtboardGroup" transform="translate(-552.000000, -304.000000)">
            <g id="tiles" sketch:type="MSLayerGroup" transform="translate(173.000000, 260.000000)">
                <g id="tile" transform="translate(287.000000, 31.000000)">
                    <g id="content" transform="translate(56.000000, 14.000000)">
                        <g id="User" transform="translate(37.000000, 0.000000)">
                            <g id="Group">
                                <circle id="Oval" stroke="#FFFFFF" stroke-width="2" fill="#EF233C" sketch:type="MSShapeGroup" cx="25" cy="25" r="25"></circle>
                                <g id="Mask-+-Shape-+-Shape" transform="translate(8.000000, 8.000000)">
                                    <mask id="mask-2" sketch:name="Mask" fill="white">
                                        <use xlink:href="#path-1"></use>
                                    </mask>
                                    <use id="Mask" sketch:type="MSShapeGroup" xlink:href="#path-1"></use>
                                    <path d="M5.515343,14.7686747 L5.55028276,14.7307229 C5.69305384,14.6271084 5.76233095,14.4656627 5.73702975,14.2957831 C5.38462011,12.1801205 5.615343,11.2957831 5.69365625,11.0759036 C6.30811408,9.18855422 8.23823456,8.31566265 8.61715023,8.16144578 C8.69787312,8.12951807 8.84727071,8.08433735 8.99847553,8.06084337 L9.04305384,8.05 L9.35329481,8.03373494 L9.35570444,8.05301205 L9.4279936,8.04698795 C9.49004179,8.03915663 9.55088517,8.0313253 9.6279936,8.01506024 L9.69606589,8 C9.75630685,8 10.5081141,8.09638554 11.6237767,8.4373494 L12.4008852,8.70421687 C13.8189575,9.12228916 14.4713671,9.90301205 14.5924514,10.0596386 C15.728596,11.3463855 15.4237767,13.289759 15.1424514,14.3331325 C15.1111261,14.4560241 15.1304032,14.5831325 15.1996803,14.6885542 L15.2647406,14.7668675 C15.3460659,14.8789157 15.4213671,15.310241 15.1743791,16.226506 C15.1261864,16.5048193 15.0237767,16.7307229 14.8713671,16.8831325 C14.8147406,16.9451807 14.7749816,17.0240964 14.7605237,17.113253 C14.3773912,19.363253 12.3605237,21.8819277 10.2346201,21.8819277 C8.42980083,21.8819277 6.37076469,19.5650602 5.99968035,17.1144578 C5.98642734,17.0240964 5.94787312,16.9427711 5.88522252,16.873494 C5.73040324,16.713253 5.63221047,16.4831325 5.57317432,16.1427711 C5.39245143,15.5006024 5.37437914,14.9837349 5.51293336,14.7692771 L5.515343,14.7686747 Z M15.155102,33.9337349 C11.5496803,35.1566265 7.82859601,34.5572289 5.23341529,33.9337349 C2.63943938,33.3108434 0.000885167206,30.7409639 0.000885167206,30.7409639 C0.000885167206,30.7409639 -0.127428086,24.6927711 2.70570444,23.7572289 C5.54004179,22.8222892 7.40690926,21.3295181 7.40690926,21.3295181 C7.40690926,21.3295181 9.30088517,22.4843373 10.2201623,22.4843373 C11.262331,22.4843373 13.2936563,21.3289157 13.2936563,21.3289157 C13.2936563,21.3289157 14.4502828,22.1722892 15.155102,22.4843373 C16.2725719,22.9807229 17.6430538,23.2614458 18.7605237,23.7572289 C18.7605237,23.7572289 20.4412466,25.1162651 20.4412466,30.0361446 C20.4412466,31.313253 18.7605237,32.7108434 15.1569093,33.9337349 L15.155102,33.9337349 Z" id="Shape" fill="#FFFFFF" sketch:type="MSShapeGroup" mask="url(#mask-2)"></path>
                                    <path d="M31.3510052,21.9477868 L28.1059077,20.9642277 C33.5897298,20.9642277 30.5167566,8 25.2402423,8 L23.7647577,8 C17.6025909,8 15.6965622,20.9642277 20.8990922,20.9642277 L17.6539948,21.9477868 C15.3691759,22.6044264 14.0065932,32.4761929 14.0065932,32.4761929 C14.0026256,32.5097426 14,32.5437007 14,32.5783006 C14,33.0535971 14.3852084,33.4388054 14.8605048,33.4388054 L34.1444952,33.4388054 C34.61985,33.4388054 35.005,33.0535971 35.005,32.5783006 C35.005,32.5437007 35.0023744,32.5097426 34.9984068,32.4761929 C34.9984068,32.4761929 33.6358241,22.6044264 31.3510052,21.9477868 L31.3510052,21.9477868 Z M22.4234134,21.4412745 C22.5111093,21.3792514 22.6257032,21.370441 22.7218595,21.4183441 C23.0528049,21.5830583 23.3803662,21.6665532 23.6954412,21.6665532 L25.3095588,21.6665532 C25.6245754,21.6665532 25.95202,21.5830583 26.2829071,21.4184608 C26.379005,21.3706161 26.4937157,21.3794848 26.5814115,21.4415079 C26.6690491,21.503531 26.7155518,21.6087311 26.7024237,21.7152731 L26.4902732,23.4383249 C26.4865973,23.4684321 26.4781953,23.4977807 26.4654756,23.5253206 L24.7672213,27.1919768 C24.719435,27.2950763 24.6161604,27.361067 24.5025,27.361067 C24.3888396,27.361067 24.285565,27.2951347 24.2377787,27.1919768 L22.5384742,23.5252623 C22.5256961,23.497664 22.5172941,23.468257 22.5136182,23.4380915 L22.3023429,21.714923 C22.2892148,21.608381 22.3357759,21.5032393 22.4234134,21.4412745 L22.4234134,21.4412745 Z M20.6448151,15.8734325 C20.5620203,15.8196364 20.5120751,15.7275645 20.5120751,15.628841 L20.5120751,15.1485266 C20.5120751,14.9874299 20.6427146,14.8567905 20.8038112,14.8567905 L20.9230146,14.8567905 L20.9230146,13.8535684 C20.9230146,13.752511 20.9752937,13.6586303 21.0612975,13.605476 C21.1473013,13.5522633 21.2546019,13.5474205 21.3450401,13.5925229 C21.7934385,13.8162845 22.392081,13.8421323 22.8033705,13.8421323 C23.081045,13.8421323 23.359653,13.8282457 23.6054698,13.8159344 C23.6815546,13.8121418 23.7553638,13.808466 23.826314,13.8053152 C23.9240456,13.8009975 24.0235277,13.7987803 24.1219594,13.7987803 C25.3229203,13.7987803 26.3306935,14.1123967 27.0665687,14.3414095 C27.3890538,14.4417084 27.6436811,14.5209439 27.8288751,14.5456248 C27.9738096,14.5649377 28.0821021,14.6885755 28.0821021,14.8347936 L28.0821021,14.8567905 L28.2013055,14.8567905 C28.3624021,14.8567905 28.4930416,14.9874299 28.4930416,15.1485266 L28.4930416,15.628841 C28.4930416,15.7275645 28.4430963,15.8196364 28.3603016,15.8734325 L28.0771426,16.0574597 L28.0613888,16.1775966 C27.9692002,16.875196 27.5778654,17.7788777 27.014523,18.5953888 C26.3011698,19.6300601 25.6324523,20.0932203 25.2862782,20.0932203 L23.7189552,20.0932203 C23.3727227,20.0932203 22.7040052,19.6300017 21.9905354,18.5951554 C21.4273097,17.7788777 21.0359748,16.8753127 20.9438446,16.1782384 L20.9280325,16.0574013 L20.6448151,15.8734325 L20.6448151,15.8734325 Z" id="Shape" fill="#FFFFFF" sketch:type="MSShapeGroup" mask="url(#mask-2)"></path>
                                </g>
                                <circle id="Mask" stroke="#FFFFFF" stroke-width="2" sketch:type="MSShapeGroup" cx="25.3012048" cy="25.3012048" r="16.8674699"></circle>
                            </g>
                        </g>
                    </g>
                </g>
            </g>
        </g>
    </g>
</svg>