<?xml version="1.0" encoding="UTF-8" standalone="no"?>
<svg width="23px" height="25px" viewBox="0 0 23 25" version="1.1" xmlns="http://www.w3.org/2000/svg" xmlns:xlink="http://www.w3.org/1999/xlink" xmlns:sketch="http://www.bohemiancoding.com/sketch/ns">
    <!-- Generator: Sketch 3.3 (11970) - http://www.bohemiancoding.com/sketch -->
    <title>Fill 189</title>
    <desc>Created with Sketch.</desc>
    <defs></defs>
    <g id="3-1_dashboard" stroke="none" stroke-width="1" fill="none" fill-rule="evenodd" sketch:type="MSPage">
        <g sketch:type="MSArtboardGroup" transform="translate(-919.000000, -92.000000)" id="nav-//-desktop" fill="#ffffff">
            <g sketch:type="MSLayerGroup">
                <g id="content" transform="translate(16.000000, 6.000000)" sketch:type="MSShapeGroup">
                    <g id="links" transform="translate(96.000000, 81.000000)">
                        <g id="activity" transform="translate(807.000000, 0.000000)">
                            <path d="M13.7943195,26.7650582 C13.5208638,26.7650582 13.2982683,26.9838025 13.2982683,27.2533267 C13.2982683,28.2292128 12.4911117,29.0234629 11.4990092,29.0234629 C10.5075673,29.0234629 9.70173171,28.2292128 9.70173171,27.2533267 C9.70173171,26.9838025 9.47979667,26.7650582 9.20568048,26.7650582 C8.93288533,26.7650582 8.71095029,26.9838025 8.71095029,27.2533267 C8.71095029,28.7676102 9.96131645,30 11.4990092,30 C13.036702,30 14.2890497,28.7676102 14.2890497,27.2533267 C14.2890497,26.9838025 14.0677752,26.7650582 13.7943195,26.7650582 L13.7943195,26.7650582 Z M22.8176962,23.9793235 L19.7977944,21.5568605 L19.7977944,14.5270956 C19.7977944,10.6984193 17.1187215,7.41595271 13.3709256,6.57092263 L13.3709256,6.39254186 C13.3709256,5.62498372 12.7368255,5 11.9580713,5 L11.0412682,5 C10.2618535,5 9.62841389,5.62498372 9.62841389,6.39254186 L9.62841389,6.57547981 C5.88986531,7.4263691 3.21937911,10.7068826 3.21937911,14.5270956 L3.21937911,21.5555584 L0.183624824,23.9780214 C0.0673731369,24.0704669 0,24.2104372 0,24.3575688 L0,25.8210724 C0,26.0905966 0.22259556,26.3093409 0.496051233,26.3093409 L22.5039488,26.3093409 C22.778065,26.3093409 23,26.0905966 23,25.8210724 L23,24.3575688 C23,24.2104372 22.9332874,24.0711179 22.8176962,23.9793235 L22.8176962,23.9793235 Z M22.0085581,25.3328038 L0.991441946,25.3328038 L0.991441946,24.5906357 L4.02653571,22.1681727 C4.14146636,22.0757272 4.21016054,21.9357569 4.21016054,21.7886253 L4.21016054,14.5270956 C4.21016054,11.0428114 6.73401109,8.06827947 10.2103328,7.45501419 C10.4461388,7.41269759 10.6191953,7.21087993 10.6191953,6.97455795 L10.6191953,6.39254186 C10.6191953,6.16338116 10.8074438,5.97653707 11.0412682,5.97653707 L11.9580713,5.97653707 C12.1905747,5.97653707 12.3801442,6.16338116 12.3801442,6.39254186 L12.3801442,6.97065181 C12.3801442,7.2076248 12.5518796,7.41074451 12.7890066,7.45175907 C16.2758967,8.05981615 18.807013,11.0349991 18.807013,14.5270956 L18.807013,21.7886253 C18.807013,21.9357569 18.8737256,22.0750762 18.9893168,22.1675217 L22.0085581,24.5893336 L22.0085581,25.3328038 L22.0085581,25.3328038 Z" id="Fill-189"></path>
                        </g>
                    </g>
                </g>
            </g>
        </g>
    </g>
</svg>