<?xml version="1.0" encoding="UTF-8" standalone="no"?>
<svg width="54px" height="46px" viewBox="0 0 54 46" version="1.1" xmlns="http://www.w3.org/2000/svg" xmlns:xlink="http://www.w3.org/1999/xlink" xmlns:sketch="http://www.bohemiancoding.com/sketch/ns">
    <!-- Generator: Sketch 3.4.2 (15857) - http://www.bohemiancoding.com/sketch -->
    <title>alert</title>
    <desc>Created with Sketch.</desc>
    <defs></defs>
    <g id="1-0_onboarding" stroke="none" stroke-width="1" fill="none" fill-rule="evenodd" sketch:type="MSPage">
        <g id="1-2-8_risk-result" sketch:type="MSArtboardGroup" transform="translate(-384.000000, -595.000000)" fill="#D7D7D9">
            <g id="alert" sketch:type="MSLayerGroup" transform="translate(384.000000, 595.000000)">
                <path d="M25.92648,17.0589647 L25.92648,31.0288941 C25.92648,31.9748706 26.49942,32.5138824 27.34074,32.5138824 C28.1826,32.5138824 28.75554,31.9748706 28.75554,31.0288941 L28.75554,17.0589647 C28.75554,16.1135294 28.1826,15.5404235 27.34074,15.5404235 C26.49942,15.5404235 25.92648,16.1135294 25.92648,17.0589647 L25.92648,17.0589647 Z" id="Shape" sketch:type="MSShapeGroup"></path>
                <path d="M27.34074,34.9784 C26.29692,34.9784 25.42158,35.8556471 25.42158,36.9012 C25.42158,37.9472941 26.29692,38.8250824 27.34074,38.8250824 C28.38456,38.8250824 29.2599,37.9472941 29.2599,36.9012 C29.26044,35.8556471 28.38456,34.9784 27.34074,34.9784 L27.34074,34.9784 Z" id="Shape" sketch:type="MSShapeGroup"></path>
                <path d="M53.75646,43.7162353 L28.10538,0.872917647 C27.88884,0.510329412 27.49734,0.287905882 27.07452,0.287905882 C26.65224,0.287905882 26.26074,0.510329412 26.04366,0.872917647 L0.39258,43.7162353 C0.16956,44.0891059 0.16362,44.5523529 0.37746,44.9306353 C0.59076,45.3083765 0.99036,45.5421647 1.42398,45.5421647 L52.72506,45.5421647 C53.15868,45.5421647 53.55828,45.3083765 53.77158,44.9306353 C53.98488,44.5523529 53.97894,44.0896471 53.75646,43.7162353 L53.75646,43.7162353 Z M3.54726,43.1323059 L27.07452,3.83531765 L50.60178,43.1323059 L3.54726,43.1323059 L3.54726,43.1323059 Z" id="Shape" sketch:type="MSShapeGroup"></path>
            </g>
        </g>
    </g>
</svg>