<?xml version="1.0" encoding="UTF-8" standalone="no"?>
<svg width="37px" height="31px" viewBox="0 0 37 31" version="1.1" xmlns="http://www.w3.org/2000/svg" xmlns:xlink="http://www.w3.org/1999/xlink">
    <!-- Generator: Sketch 3.7 (28169) - http://www.bohemiancoding.com/sketch -->
    <title>alert</title>
    <desc>Created with Sketch.</desc>
    <defs></defs>
    <g id="Page-1" stroke="none" stroke-width="1" fill="none" fill-rule="evenodd">
        <g id="alert" fill="#EF233C">
            <path d="M17.76444,11.6112214 L17.76444,21.1198842 C17.76444,21.7637652 18.15701,22.1306447 18.73347,22.1306447 C19.3103,22.1306447 19.70287,21.7637652 19.70287,21.1198842 L19.70287,11.6112214 C19.70287,10.9677088 19.3103,10.577623 18.73347,10.577623 C18.15701,10.577623 17.76444,10.9677088 17.76444,11.6112214 L17.76444,11.6112214 L17.76444,11.6112214 Z" id="Shape"></path>
            <path d="M18.73347,23.808124 C18.01826,23.808124 17.41849,24.4052241 17.41849,25.116882 C17.41849,25.8289082 18.01826,26.4263767 18.73347,26.4263767 C19.44868,26.4263767 20.04845,25.8289082 20.04845,25.116882 C20.04882,24.4052241 19.44868,23.808124 18.73347,23.808124 L18.73347,23.808124 L18.73347,23.808124 Z" id="Shape"></path>
            <path d="M36.83313,29.7555506 L19.25739,0.594153294 C19.10902,0.347356824 18.84077,0.195963764 18.55106,0.195963764 C18.26172,0.195963764 17.99347,0.347356824 17.84473,0.594153294 L0.26899,29.7555506 C0.11618,30.0093458 0.11211,30.3246559 0.25863,30.5821346 C0.40478,30.839245 0.67858,30.9983734 0.97569,30.9983734 L36.12643,30.9983734 C36.42354,30.9983734 36.69734,30.839245 36.84349,30.5821346 C36.98964,30.3246559 36.98557,30.0097141 36.83313,29.7555506 L36.83313,29.7555506 L36.83313,29.7555506 Z M2.43053,29.3580978 L18.55106,2.6105173 L34.67159,29.3580978 L2.43053,29.3580978 L2.43053,29.3580978 L2.43053,29.3580978 Z" id="Shape"></path>
        </g>
    </g>
</svg>