<?xml version="1.0" encoding="UTF-8" standalone="no"?>
<svg width="19px" height="13px" viewBox="0 0 19 13" version="1.1" xmlns="http://www.w3.org/2000/svg" xmlns:xlink="http://www.w3.org/1999/xlink">
    <!-- Generator: Sketch 3.6 (26304) - http://www.bohemiancoding.com/sketch -->
    <title>Slice 1</title>
    <desc>Created with Sketch.</desc>
    <defs></defs>
    <g id="Page-1" stroke="none" stroke-width="1" fill="none" fill-rule="evenodd">
        <path d="M18.7295502,5.84725672 L13.0789926,0.255858871 C12.7342379,-0.0852862903 12.1751152,-0.0852862903 11.8303606,0.255858871 C11.4855353,0.597073925 11.4855353,1.15020296 11.8303606,1.49141801 L15.9737026,5.59138038 L0.882899628,5.59138038 C0.395327138,5.59138038 0,5.98256855 0,6.46503629 C0,6.94743414 0.395327138,7.3386922 0.882899628,7.3386922 L15.9737026,7.3386922 L11.8305019,11.4386546 C11.4856766,11.7798696 11.4856766,12.3329987 11.8305019,12.6742137 C12.0028439,12.8446815 12.2288662,12.9300901 12.4548178,12.9300901 C12.6807695,12.9300901 12.9067212,12.8446815 13.0791338,12.6742137 L18.7295502,7.08281586 C19.0743755,6.74160081 19.0743755,6.18847177 18.7295502,5.84725672 L18.7295502,5.84725672 Z" id="Shape" fill="#EF233C" transform="translate(9.494085, 6.465045) scale(-1, 1) translate(-9.494085, -6.465045) "></path>
    </g>
</svg>
