<?xml version="1.0" encoding="UTF-8" standalone="no"?>
<svg width="14px" height="20px" viewBox="0 0 14 20" version="1.1" xmlns="http://www.w3.org/2000/svg" xmlns:xlink="http://www.w3.org/1999/xlink" xmlns:sketch="http://www.bohemiancoding.com/sketch/ns">
    <!-- Generator: Sketch 3.3 (11970) - http://www.bohemiancoding.com/sketch -->
    <title>Fill 24</title>
    <desc>Created with Sketch.</desc>
    <defs></defs>
    <g id="3-3_activity" stroke="none" stroke-width="1" fill="none" fill-rule="evenodd" sketch:type="MSPage">
        <g sketch:type="MSArtboardGroup" transform="translate(-227.000000, -845.000000)" id="content" fill="#000000">
            <g sketch:type="MSLayerGroup" transform="translate(214.000000, 220.000000)">
                <g id="notification" transform="translate(0.000000, 589.000000)" sketch:type="MSShapeGroup">
                    <g id="btn-//-activity" transform="translate(0.000000, 26.000000)">
                        <g id="Fill-24">
                            <path d="M26.961699,10.1884041 C26.902312,10.0726768 26.7826101,10 26.6522371,10 L17.7710993,10 C17.6198481,10 17.4862274,10.097211 17.4398313,10.2407129 L14.4055276,19.6271265 C14.3716585,19.7331327 14.3902169,19.8488601 14.4556354,19.9382016 C14.5210539,20.028006 14.625445,20.0807777 14.7367956,20.0807777 L16.4836081,20.0807777 L13.0210686,29.5333873 C12.9635374,29.6912394 13.0271,29.867145 13.1718558,29.9523203 C13.2270672,29.984724 13.287846,30 13.3481609,30 C13.4465206,30 13.5434884,29.9583382 13.6116907,29.8796436 L23.5367403,18.3967133 C23.6253568,18.2934846 23.6462351,18.1485939 23.5891679,18.0249971 C23.5325647,17.9014003 23.4091511,17.8227057 23.2732106,17.8227057 L21.7064149,17.8227057 L26.9347893,10.5499363 C27.0108788,10.4439301 27.021086,10.3041315 26.961699,10.1884041 L26.961699,10.1884041 Z M20.7455521,17.9671334 C20.6694625,18.0731397 20.6592554,18.2124754 20.7191063,18.3282028 C20.7784933,18.4439301 20.8977312,18.5170698 21.0285682,18.5170698 L22.5132428,18.5170698 L14.3289741,27.9863442 L17.3085304,19.8530263 C17.3475031,19.7465571 17.3317284,19.6275894 17.2667739,19.5350075 C17.2013555,19.4419627 17.0951084,19.3864136 16.981438,19.3864136 L15.2146753,19.3864136 L18.0244219,10.6943641 L25.9743904,10.6943641 L20.7455521,17.9671334 L20.7455521,17.9671334 Z"></path>
                        </g>
                    </g>
                </g>
            </g>
        </g>
    </g>
</svg>
