<?xml version="1.0" encoding="UTF-8" standalone="no"?>
<svg width="25px" height="23px" viewBox="0 0 25 23" version="1.1" xmlns="http://www.w3.org/2000/svg" xmlns:xlink="http://www.w3.org/1999/xlink" xmlns:sketch="http://www.bohemiancoding.com/sketch/ns">
    <!-- Generator: Sketch 3.5.2 (25235) - http://www.bohemiancoding.com/sketch -->
    <title>Group</title>
    <desc>Created with Sketch.</desc>
    <defs></defs>
    <g id="2-0_registration" stroke="none" stroke-width="1" fill="none" fill-rule="evenodd" sketch:type="MSPage">
        <g id="-2-10_db-contract" sketch:type="MSArtboardGroup" transform="translate(-937.000000, -237.000000)" fill="#000000">
            <g id="sidebar" sketch:type="MSLayerGroup" transform="translate(913.000000, 145.000000)">
                <g id="contact" transform="translate(4.000000, 81.000000)" sketch:type="MSShapeGroup">
                    <g id="Group" transform="translate(20.000000, 11.000000)">
                        <path d="M20.3759594,0.0106695332 L4.61467269,0.0106695332 C2.07014673,0.0106695332 0,2.0813493 0,4.62685153 L0,14.2261571 C0,16.7717158 2.07014673,18.842452 4.61467269,18.842452 L15.4952032,18.842452 L19.4278217,22.7758404 C19.5454289,22.8937133 19.7028217,22.9560934 19.8629797,22.9560934 C19.9420993,22.9560934 20.0222348,22.9409641 20.0981941,22.9093506 C20.3282167,22.8142845 20.4781038,22.5894905 20.4781038,22.3407605 L20.4781038,18.8412665 C22.9756208,18.786564 24.9905756,16.7373362 24.9905756,14.2261571 L24.9905756,4.62690798 C24.9905756,2.0813493 22.9204853,0.0106695332 20.3759594,0.0106695332 L20.3759594,0.0106695332 Z M23.7600451,14.2261007 C23.7600451,16.0924786 22.2419865,17.6113911 20.3758465,17.6113911 L19.8626411,17.6113911 C19.5228555,17.6113911 19.2474605,17.8867102 19.2474605,18.2268369 L19.2474605,20.8548728 L16.1849887,17.7916441 C16.0696953,17.6763116 15.913149,17.6113911 15.7500564,17.6113911 L4.61467269,17.6113911 C2.74870203,17.6113911 1.23053047,16.0924786 1.23053047,14.2261007 L1.23053047,4.62690798 C1.23053047,2.76002194 2.74870203,1.24161753 4.61467269,1.24161753 L20.3759029,1.24161753 C22.24193,1.24161753 23.7601016,2.75996548 23.7601016,4.62690798 L23.7601016,14.2261007 L23.7600451,14.2261007 Z" id="Shape"></path>
                        <path d="M6.72680587,8.08671581 C5.96218962,8.08671581 5.34243792,8.7070165 5.34243792,9.47160992 C5.34243792,10.2367679 5.96218962,10.856504 6.72680587,10.856504 C7.49108352,10.856504 8.11123025,10.2367114 8.11123025,9.47160992 C8.11123025,8.7070165 7.49108352,8.08671581 6.72680587,8.08671581 L6.72680587,8.08671581 Z" id="Shape"></path>
                        <path d="M12.4952032,8.08671581 C11.7305869,8.08671581 11.1107788,8.7070165 11.1107788,9.47160992 C11.1107788,10.2367679 11.7305869,10.856504 12.4952032,10.856504 C13.2594808,10.856504 13.8796275,10.2367114 13.8796275,9.47160992 C13.8795711,8.7070165 13.2594808,8.08671581 12.4952032,8.08671581 L12.4952032,8.08671581 Z" id="Shape"></path>
                        <path d="M18.2636569,8.08671581 C17.4990406,8.08671581 16.8791761,8.7070165 16.8791761,9.47160992 C16.8791761,10.2367679 17.4990406,10.856504 18.2636569,10.856504 C19.0279345,10.856504 19.647912,10.2367114 19.647912,9.47160992 C19.647912,8.7070165 19.0279345,8.08671581 18.2636569,8.08671581 L18.2636569,8.08671581 Z" id="Shape"></path>
                    </g>
                </g>
            </g>
        </g>
    </g>
</svg>