<svg width="80" height="80" viewBox="0 0 80 80" xmlns="http://www.w3.org/2000/svg">
  <path d="M40,80 C62.09,80 80,62.09 80,40 C80,17.91 62.09,0 40,0 C17.91,0 0,17.91 0,40 C0,62.09 17.91,80 40,80 L40,80 Z M61.33,21.446 L32.76,49.19 L19.616,36.96 C19.016,36.358 17.0598247,35.7845325 16.4510001,36.9599999 C15.8421754,38.1354673 15.851,40.538 16.451,41.14 L31.616,56.396 C32.261,57.048 33.221,57.048 33.814,56.448 L64.478,25.604 C65.068,25.009 65.3660661,22.041 64.7760661,21.446 C64.1810661,20.851 61.923,20.851 61.33,21.446 Z" fill="#EF233C" fill-rule="evenodd"></path>
</svg>
