<?xml version="1.0" encoding="UTF-8" standalone="no"?>
<svg width="20px" height="18px" viewBox="0 0 20 18" version="1.1" xmlns="http://www.w3.org/2000/svg" xmlns:xlink="http://www.w3.org/1999/xlink" xmlns:sketch="http://www.bohemiancoding.com/sketch/ns">
    <!-- Generator: Sketch 3.3 (11970) - http://www.bohemiancoding.com/sketch -->
    <title>coin</title>
    <desc>Created with Sketch.</desc>
    <defs></defs>
    <g id="3-3_activity" stroke="none" stroke-width="1" fill="none" fill-rule="evenodd" sketch:type="MSPage">
        <g sketch:type="MSArtboardGroup" transform="translate(-224.000000, -302.000000)" id="content" fill="#000000">
            <g sketch:type="MSLayerGroup" transform="translate(214.000000, 220.000000)">
                <g id="notification" transform="translate(0.000000, 45.000000)" sketch:type="MSShapeGroup">
                    <g id="btn-//-activity" transform="translate(0.000000, 26.000000)">
                        <g id="coin" transform="translate(10.000000, 11.000000)">
                            <path d="M0.705124599,11.1300602 C0.409236654,11.1300602 0.169432413,10.8893337 0.169432413,10.5924206 C0.169432413,10.2955076 0.409236654,10.0546681 0.705124599,10.0546681 L13.6154582,10.0524658 C13.9113461,10.0524658 14.1510941,10.2932488 14.1510941,10.5901619 C14.1510941,10.8870749 13.9112336,11.1278579 13.6154582,11.1278579 L0.705124599,11.1300602 L0.705124599,11.1300602 Z" id="Shape"></path>
                            <path d="M18.4097992,14.2947421 C18.6193958,14.0843393 18.9611858,14.0843393 19.17067,14.2947421 C19.3803229,14.5051449 19.3803229,14.8483059 19.17067,15.0585958 C18.3817855,15.8494416 17.4347753,16.4907015 16.3802104,16.9294642 L16.3802104,16.9294642 C15.3660348,17.3513427 14.2542611,17.5842201 13.0943354,17.5842201 C11.9344659,17.5842201 10.8238735,17.3502133 9.80964167,16.9294642 C8.75502053,16.4918308 7.80694155,15.8506839 7.01800079,15.0585958 C6.22906002,14.2666207 5.59025707,13.3148388 5.1543005,12.2562178 C4.73403836,11.2380851 4.50205321,10.1232212 4.50205321,8.95877776 C4.50205321,7.79439076 4.73403836,6.67952692 5.1543005,5.66139415 C5.59025707,4.60164387 6.22900377,3.64986197 7.01800079,2.85788681 C7.80699781,2.06591166 8.75395174,1.42578115 9.80964167,0.987018446 C10.8238735,0.566269294 11.9344659,0.332262517 13.0943354,0.332262517 C14.2542611,0.332262517 15.3648535,0.566269294 16.3791416,0.987018446 C17.4337065,1.42465178 18.381898,2.06478228 19.1707825,2.85788681 C19.3804354,3.06828962 19.3804354,3.41139415 19.1707825,3.62174049 C18.9611858,3.83208684 18.6193958,3.83214331 18.4099117,3.62174049 C17.715025,2.92310829 16.885695,2.36175179 15.9724363,1.98149078 C15.0893289,1.61472581 14.1175676,1.41222864 13.0944479,1.41222864 C12.0713281,1.41222864 11.0985543,1.61472581 10.2176408,1.9803614 C9.30207572,2.36175179 8.47381448,2.92310829 7.77898408,3.62061112 C7.08302863,4.31924332 6.52269787,5.15063371 6.14501884,6.06864726 C5.77965911,6.95402183 5.57793778,7.93053708 5.57793778,8.95651901 C5.57793778,9.98363032 5.77965911,10.9590162 6.14501884,11.8443908 C6.52382292,12.7624043 7.08415368,13.5948676 7.77898408,14.2924269 C8.47493953,14.9910591 9.30426956,15.553545 10.2176408,15.9326766 C11.0996231,16.2994416 12.0712719,16.5019388 13.0944479,16.5019388 C14.1154301,16.5019388 15.0870788,16.2994416 15.9690611,15.9326766 L15.9690611,15.9338625 L15.9713112,15.9326766 C16.8856387,15.5546744 17.7149688,14.9921885 18.4097992,14.2947421 L18.4097992,14.2947421 Z" id="Shape"></path>
                            <path d="M2.85683749,7.89004894 C2.56100579,7.89004894 2.3211453,7.64932237 2.3211453,7.3522964 C2.3211453,7.05532689 2.56100579,6.81454386 2.85683749,6.81454386 L15.7661023,6.8122851 C16.0619902,6.8122851 16.3016819,7.05301167 16.3016819,7.34998118 C16.3016819,7.64700715 16.0618777,7.88773372 15.7661023,7.88773372 L2.85683749,7.89004894 L2.85683749,7.89004894 Z" id="Shape"></path>
                        </g>
                    </g>
                </g>
            </g>
        </g>
    </g>
</svg>
