<?xml version="1.0" encoding="UTF-8" standalone="no"?>
<svg width="52px" height="52px" viewBox="0 0 52 52" version="1.1" xmlns="http://www.w3.org/2000/svg" xmlns:xlink="http://www.w3.org/1999/xlink" xmlns:sketch="http://www.bohemiancoding.com/sketch/ns">
    <!-- Generator: Sketch 3.4.3 (16044) - http://www.bohemiancoding.com/sketch -->
    <title>Company</title>
    <desc>Created with Sketch.</desc>
    <defs></defs>
    <g id="2-0_registration" stroke="none" stroke-width="1" fill="none" fill-rule="evenodd" sketch:type="MSPage">
        <g id="2-11_account-type" sketch:type="MSArtboardGroup" transform="translate(-837.000000, -307.000000)">
            <g id="tiles" sketch:type="MSLayerGroup" transform="translate(172.000000, 262.000000)">
                <g id="tile" transform="translate(574.000000, 32.000000)" sketch:type="MSShapeGroup">
                    <g id="content" transform="translate(16.000000, 14.000000)">
                        <g id="company_circle" transform="translate(76.000000, 0.000000)">
                            <g id="Company">
                                <g id="Group">
                                    <circle id="Oval" stroke="#FFFFFF" stroke-width="2" fill="#EF233C" cx="25" cy="25" r="25"></circle>
                                    <path d="M12.6506024,18.6746988 L25.9036145,18.6746988 L25.9036145,37.3493976 L12.6506024,37.3493976 L12.6506024,18.6746988 Z" id="Shape" fill="#FFFFFF"></path>
                                    <path d="M24.6987952,24.6987952 L37.9518072,24.6987952 L37.9518072,36.7590361 L24.6987952,36.7590361 L24.6987952,24.6987952 Z" id="Shape" fill="#FFFFFF"></path>
                                    <path d="M15.060241,34.939759 L36.1445783,34.939759 L36.1445783,39.1566265 C0,0 31.7066265,41.3927711 30.3819277,41.6204819 C27.1692771,42.173494 22.7891566,42.0078313 19.5108434,40.9493976 C16.9686747,40.1289157 15.060241,38.4024096 15.060241,38.4024096 L15.060241,34.939759 L15.060241,34.939759 Z" id="Shape" stroke="#EF233C" fill="#FFFFFF"></path>
                                    <path d="M27.7108434,36.746988 L34.939759,36.746988 L34.939759,40.9638554 L27.7108434,40.9638554 L27.7108434,36.746988 Z M16.2650602,36.746988 L23.4939759,36.746988 L23.4939759,40.9638554 L16.2650602,40.9638554 L16.2650602,36.746988 Z M24.0963855,37.9518072 C-23.4939759,-8.43373494 24.0963855,36.8493976 25.6024096,36.8493976 C27.1084337,36.8493976 27.1084337,37.9518072 27.1084337,37.9518072 L27.1084337,42.1686747 L24.0963855,42.1686747 L24.0963855,37.9518072 L24.0963855,37.9518072 Z" id="Shape" fill="#EF233C"></path>
                                    <path d="M18.6746988,13.8554217 L32.5301205,13.8554217 L32.5301205,36.1445783 L18.6746988,36.1445783 L18.6746988,13.8554217 Z" id="Shape" stroke="#EF233C" fill="#FFFFFF"></path>
                                    <path d="M20.4819277,15.6626506 L23.4939759,15.6626506 L23.4939759,19.8795181 L20.4819277,19.8795181 L20.4819277,15.6626506 Z M24.0963855,15.6626506 L27.1084337,15.6626506 L27.1084337,19.8795181 L24.0963855,19.8795181 L24.0963855,15.6626506 Z M27.7108434,15.6626506 L30.7228916,15.6626506 L30.7228916,19.8795181 L27.7108434,19.8795181 L27.7108434,15.6626506 Z M20.4819277,20.4819277 L23.4939759,20.4819277 L23.4939759,24.6987952 L20.4819277,24.6987952 L20.4819277,20.4819277 Z M24.0963855,20.4819277 L27.1084337,20.4819277 L27.1084337,24.6987952 L24.0963855,24.6987952 L24.0963855,20.4819277 Z M27.7108434,20.4819277 L30.7228916,20.4819277 L30.7228916,24.6987952 L27.7108434,24.6987952 L27.7108434,20.4819277 Z M20.4819277,25.3012048 L23.4939759,25.3012048 L23.4939759,29.5180723 L20.4819277,29.5180723 L20.4819277,25.3012048 Z M24.0963855,25.3012048 L27.1084337,25.3012048 L27.1084337,29.5180723 L24.0963855,29.5180723 L24.0963855,25.3012048 Z M27.7108434,25.3012048 L30.7228916,25.3012048 L30.7228916,29.5180723 L27.7108434,29.5180723 L27.7108434,25.3012048 Z M20.4819277,30.1204819 L23.4939759,30.1204819 L23.4939759,34.3373494 L20.4819277,34.3373494 L20.4819277,30.1204819 Z M24.0963855,30.1204819 L27.1084337,30.1204819 L27.1084337,34.3373494 L24.0963855,34.3373494 L24.0963855,30.1204819 Z M27.7108434,30.1204819 L30.7228916,30.1204819 L30.7228916,34.3373494 L27.7108434,34.3373494 L27.7108434,30.1204819 Z" id="Shape" fill="#EF233C"></path>
                                    <path d="M16.2650602,34.939759 L33.7349398,34.939759 L33.7349398,36.746988 L16.2650602,36.746988 L16.2650602,34.939759 Z" id="Shape" fill="#FFFFFF"></path>
                                    <circle id="Oval" stroke="#FFFFFF" stroke-width="2" cx="25.3012048" cy="25.3012048" r="16.8674699"></circle>
                                </g>
                            </g>
                        </g>
                    </g>
                </g>
            </g>
        </g>
    </g>
</svg>