<svg xmlns="http://www.w3.org/2000/svg" width="220" height="220" viewBox="0 0 220 220" xmlns:xlink="http://www.w3.org/1999/xlink"><title>icon copy</title><defs><circle id="a" cx="105.875" cy="105.625" r="105.625"/><path id="c" d="M107.665 213.125c58.335 0 105.625-47.29 105.625-105.625S166 1.875 107.665 1.875C61.9 1.875 16.708-8.83 2.04 31.88c-4.03 11.18 0 63.05 0 75.62 0 58.335 47.29 105.625 105.625 105.625z"/></defs><g fill="none" fill-rule="evenodd"><g transform="translate(4 4)"><mask id="b" fill="#fff"><use xlink:href="#a"/></mask><use fill="#355D8A" fill-opacity="0.4" stroke="#355D8A" stroke-width="4" xlink:href="#a"/><rect width="107.699" height="118.187" x="98.301" y="78.813" fill="#FFF" stroke="#355D8A" stroke-width="2" mask="url(#b)" rx="2"/><path fill="#83A7CF" d="M160.145 107.672h37.843v1.598h-37.843v-1.598zm12.364-12.368h25.228V98.5h-25.23v-3.196zm-17.423 27.485h42.888v1.597h-42.888v-1.598zm5.058 6.87h37.843v1.6h-37.843v-1.6zm7.306-15.116h30.275v1.598H167.45v-1.598z" mask="url(#b)"/><path fill="#83A7CF" d="M124.66 122.466l-4.05 9.61c-4.327-3.946-7.184-10.686-7.184-18.342 0-11.696 6.664-21.237 15.07-21.952v11.08c-3.954.687-7.032 5.273-7.032 10.872 0 3.573 1.267 6.72 3.196 8.732zm11.214-15.364l7.016-5.548c-2.706-5.57-7.216-9.334-12.384-9.772v11.08c2.19.38 4.093 1.947 5.368 4.24zm8.01-3.156l-6.975 5.52c.403 1.31.63 2.755.63 4.268 0 6.073-3.606 11.01-8.04 11.01-1.104 0-2.158-.305-3.115-.862l-4.03 9.557c2.156 1.47 4.575 2.316 7.146 2.316 8.878 0 16.076-9.86 16.076-22.022 0-3.52-.618-6.836-1.69-9.788z" mask="url(#b)"/></g><g transform="translate(2.21 2.125)"><mask id="d" fill="#fff"><use xlink:href="#c"/></mask><use xlink:href="#c"/><rect width="138.114" height="182.435" x="13" y="30.69" fill="#FFF" stroke="#355D8A" stroke-width="2" mask="url(#d)" rx="2"/><g mask="url(#d)"><path fill="#83A7CF" d="M51.4 96.584h57.17v2.81H51.4z"/><text font-family="Lucida Grande" font-size="18" transform="translate(26 87)"><tspan x=".79" y="17.875" fill="#83A7CF">✓</tspan></text></g><g mask="url(#d)"><path fill="#83A7CF" d="M51.4 127.46h57.17v2.81H51.4z"/><text font-family="Lucida Grande" font-size="18" transform="translate(26 117.875)"><tspan x=".79" y="17.875" fill="#83A7CF">✓</tspan></text></g><g mask="url(#d)"><path fill="#83A7CF" d="M51.4 157.46h57.17v2.81H51.4z"/><text font-family="Lucida Grande" font-size="18" transform="translate(26 147.875)"><tspan x=".79" y="17.875" fill="#83A7CF">✓</tspan></text></g><g mask="url(#d)"><path fill="#83A7CF" d="M51.4 186.584h57.17v2.81H51.4z"/><text font-family="Lucida Grande" font-size="18" transform="translate(26 177)"><tspan x=".79" y="17.875" fill="#83A7CF">✓</tspan></text></g><path fill="#83A7CF" d="M25.4 49.27h58.61v3.92H25.4zM123.083 49.27h15.63v3.92h-15.63zM25.4 60.584h35.166v2.81H25.4z" mask="url(#d)"/></g></g></svg>
