<?xml version="1.0" encoding="UTF-8" standalone="no"?>
<svg width="14px" height="11px" viewBox="0 0 14 11" version="1.1" xmlns="http://www.w3.org/2000/svg" xmlns:xlink="http://www.w3.org/1999/xlink">
    <!-- Generator: Sketch 3.6 (26304) - http://www.bohemiancoding.com/sketch -->
    <title>download</title>
    <desc>Created with Sketch.</desc>
    <defs></defs>
    <g id="Page-1" stroke="none" stroke-width="1" fill="none" fill-rule="evenodd">
        <g id="download" fill="#000000">
            <path d="M0.350583333,10.6539601 C0.189583333,10.6539601 0.0589166667,10.519943 0.0589166667,10.3548148 L0.0589166667,7.53606838 L0.64225,7.53606838 L0.64225,10.0556695 L13.35775,10.0556695 L13.35775,7.53606838 L13.9410833,7.53606838 L13.9410833,10.3548148 C13.9410833,10.519943 13.8104167,10.6539601 13.6494167,10.6539601 L0.350583333,10.6539601 Z" id="Shape"></path>
            <path d="M9.43697222,6.02279202 L7.29166667,8.22310541 L7.29166667,0.414415954 L6.70833333,0.414415954 L6.70833333,8.22330484 L4.56244444,6.02279202 L4.15002778,6.44578348 L6.79369444,9.15703704 C6.80711111,9.17079772 6.82188889,9.18316239 6.83763889,9.19413105 C6.86388889,9.20928775 6.87536111,9.21626781 6.88780556,9.22185185 C6.89383333,9.22444444 6.90025,9.22564103 6.90647222,9.22763533 C6.91833333,9.23182336 6.93,9.23621083 6.94244444,9.23880342 C6.96130556,9.24279202 6.98055556,9.24478632 7,9.24478632 C7.01944444,9.24478632 7.03888889,9.24259259 7.05755556,9.23880342 C7.07,9.23621083 7.08186111,9.23182336 7.09372222,9.22763533 C7.09975,9.2254416 7.10616667,9.22424501 7.11219444,9.22185185 C7.12463889,9.21646724 7.13611111,9.20948718 7.14777778,9.20230769 C7.17577778,9.18475783 7.18802778,9.1739886 7.19969444,9.16282051 C7.20183333,9.16062678 9.84958333,6.44598291 9.84958333,6.44598291 L9.43697222,6.02279202 Z" id="Shape"></path>
        </g>
    </g>
</svg>