<?xml version="1.0" encoding="UTF-8" standalone="no"?>
<svg width="60px" height="60px" viewBox="0 0 60 60" version="1.1" xmlns="http://www.w3.org/2000/svg" xmlns:xlink="http://www.w3.org/1999/xlink" xmlns:sketch="http://www.bohemiancoding.com/sketch/ns">
    <!-- Generator: Sketch 3.3.2 (12043) - http://www.bohemiancoding.com/sketch -->
    <title>icon + €</title>
    <desc>Created with Sketch.</desc>
    <defs></defs>
    <g id="App" stroke="none" stroke-width="1" fill="none" fill-rule="evenodd" sketch:type="MSPage">
        <g id="onboard-01" sketch:type="MSArtboardGroup" transform="translate(-178.000000, -658.000000)">
            <g id="goal-3" sketch:type="MSLayerGroup" transform="translate(150.000000, 630.000000)">
                <g id="icon-+-€" transform="translate(28.000000, 28.000000)" sketch:type="MSShapeGroup">
                    <g id="icon" fill="#EF233C">
                        <circle id="inner" cx="30" cy="30" r="30"></circle>
                    </g>
                    <path d="M22,27.672 L24.058,27.672 C24.2446676,26.4959941 24.5596644,25.4343381 25.003,24.487 C25.4463356,23.5396619 25.9969967,22.7323367 26.655,22.065 C27.3130033,21.3976633 28.071329,20.8866684 28.93,20.532 C29.788671,20.1773316 30.721995,20 31.73,20 C32.9806729,20 34.0493289,20.233331 34.936,20.7 C35.8226711,21.166669 36.5926634,21.8106626 37.246,22.632 L36.392,23.584 C36.317333,23.6680004 36.242667,23.740333 36.168,23.801 C36.093333,23.861667 35.9906673,23.892 35.86,23.892 C35.7013325,23.892 35.5356675,23.8033342 35.363,23.626 C35.1903325,23.4486658 34.9593348,23.2526677 34.67,23.038 C34.3806652,22.8233323 34.0096689,22.6273342 33.557,22.45 C33.1043311,22.2726658 32.5280035,22.184 31.828,22.184 C30.4653265,22.184 29.3336712,22.650662 28.433,23.584 C27.5323288,24.517338 26.9326682,25.879991 26.634,27.672 L34.292,27.672 L34.292,28.442 C34.292,28.6100008 34.2290006,28.761666 34.103,28.897 C33.9769994,29.032334 33.8020011,29.1 33.578,29.1 L26.466,29.1 C26.4566666,29.2866676 26.4496667,29.4733324 26.445,29.66 C26.4403333,29.8466676 26.438,30.037999 26.438,30.234 L26.438,30.668 C26.438,30.8080007 26.4426666,30.9479993 26.452,31.088 L32.99,31.088 L32.99,31.872 C32.99,32.0306675 32.9246673,32.177666 32.794,32.313 C32.6633327,32.448334 32.4860011,32.516 32.262,32.516 L26.578,32.516 C26.8393346,34.4386763 27.4179955,35.8806619 28.314,36.842 C29.2100045,37.8033381 30.3393265,38.284 31.702,38.284 C32.2060025,38.284 32.6493314,38.2350005 33.032,38.137 C33.4146686,38.0389995 33.7459986,37.9153341 34.026,37.766 C34.3060014,37.6166659 34.5463323,37.4556675 34.747,37.283 C34.9476677,37.1103325 35.1226659,36.9493341 35.272,36.8 C35.4213341,36.6506659 35.5543328,36.5270005 35.671,36.429 C35.7876672,36.3309995 35.9019994,36.282 36.014,36.282 C36.088667,36.282 36.1539997,36.2983332 36.21,36.331 C36.2660003,36.3636668 36.331333,36.4126663 36.406,36.478 L37.456,37.458 C36.8026634,38.4100048 35.9906715,39.149664 35.02,39.677 C34.0493285,40.204336 32.8966733,40.468 31.562,40.468 C30.4793279,40.468 29.5040043,40.2836685 28.636,39.915 C27.7679957,39.5463315 27.0166698,39.0190034 26.382,38.333 C25.7473302,37.6469966 25.227002,36.8116716 24.821,35.827 C24.414998,34.8423284 24.1373341,33.7386728 23.988,32.516 L22,32.516 L22,31.088 L23.876,31.088 C23.8666666,30.9479993 23.862,30.8080007 23.862,30.668 L23.862,30.234 C23.862,30.0473324 23.8643333,29.8583343 23.869,29.667 C23.8736667,29.4756657 23.8806666,29.2866676 23.89,29.1 L22,29.1 L22,27.672 Z" id="€" fill="#FFFFFF"></path>
                </g>
            </g>
        </g>
    </g>
</svg>