<?xml version="1.0" encoding="UTF-8" standalone="no"?>
<svg width="60px" height="60px" viewBox="0 0 60 60" version="1.1" xmlns="http://www.w3.org/2000/svg" xmlns:xlink="http://www.w3.org/1999/xlink" xmlns:sketch="http://www.bohemiancoding.com/sketch/ns">
    <!-- Generator: Sketch 3.3.2 (12043) - http://www.bohemiancoding.com/sketch -->
    <title>icon + Fill 167</title>
    <desc>Created with Sketch.</desc>
    <defs></defs>
    <g id="App" stroke="none" stroke-width="1" fill="none" fill-rule="evenodd" sketch:type="MSPage">
        <g id="onboard-01" sketch:type="MSArtboardGroup" transform="translate(-178.000000, -370.000000)">
            <g id="goal-1" sketch:type="MSLayerGroup" transform="translate(150.000000, 342.000000)">
                <g id="icon-+-Fill-167" transform="translate(28.000000, 28.000000)" sketch:type="MSShapeGroup">
                    <g id="icon" fill="#EF233C">
                        <circle id="inner" cx="30" cy="30" r="30"></circle>
                    </g>
                    <path d="M18.5282472,21.6630208 L16.5964723,21.6630208 C16.2672196,21.6630208 16,21.9244987 16,22.2466769 C16,22.5688551 16.2672196,22.830333 16.5964723,22.830333 L18.5282472,22.830333 C18.8574999,22.830333 19.1247195,22.5688551 19.1247195,22.2466769 C19.1247195,21.9244987 18.8574999,21.6630208 18.5282472,21.6630208 L18.5282472,21.6630208 Z M18.5282472,32.763382 L16.5964723,32.763382 C16.2672196,32.763382 16,33.0248599 16,33.3470381 C16,33.6692163 16.2672196,33.9306942 16.5964723,33.9306942 L18.5282472,33.9306942 C18.8574999,33.9306942 19.1247195,33.6692163 19.1247195,33.3470381 C19.1247195,33.0248599 18.8574999,32.763382 18.5282472,32.763382 L18.5282472,32.763382 Z M18.5282472,27.2132014 L16.5964723,27.2132014 C16.2672196,27.2132014 16,27.4746793 16,27.7968575 C16,28.1190357 16.2672196,28.3805136 16.5964723,28.3805136 L18.5282472,28.3805136 C18.8574999,28.3805136 19.1247195,28.1190357 19.1247195,27.7968575 C19.1247195,27.4746793 18.8574999,27.2132014 18.5282472,27.2132014 L18.5282472,27.2132014 Z M18.5282472,38.315119 L16.5964723,38.315119 C16.2672196,38.315119 16,38.576597 16,38.8987751 C16,39.2209533 16.2672196,39.4824312 16.5964723,39.4824312 L18.5282472,39.4824312 C18.8574999,39.4824312 19.1247195,39.2209533 19.1247195,38.8987751 C19.1247195,38.576597 18.8574999,38.315119 18.5282472,38.315119 L18.5282472,38.315119 Z M23.5934899,34.116686 C23.7461868,34.116686 23.8988837,34.0590986 24.0157923,33.9454802 L30.2755702,27.8217602 L34.9407788,32.3882857 C35.0521203,32.4972348 35.2040219,32.5594915 35.3622859,32.5594915 C35.5205499,32.5594915 35.6724515,32.4972348 35.783793,32.3882857 L43.3558099,24.979744 C43.5888318,24.751729 43.5888318,24.3828583 43.3558099,24.1548433 C43.1227881,23.9268283 42.7450223,23.9268283 42.5120005,24.1548433 L35.3622859,31.1501565 L30.6970773,26.583631 C30.5849405,26.4739036 30.4338342,26.4124252 30.2755702,26.4124252 C30.1173062,26.4124252 29.9654046,26.4739036 29.8532678,26.583631 L23.1719828,33.1198013 C22.938961,33.3478163 22.938961,33.7174652 23.1719828,33.9454802 C23.2880961,34.0590986 23.440793,34.116686 23.5934899,34.116686 L23.5934899,34.116686 Z M18.5282472,16.1112838 L16.5964723,16.1112838 C16.2672196,16.1112838 16,16.3727617 16,16.6949399 C16,17.0171181 16.2672196,17.278596 16.5964723,17.278596 L18.5282472,17.278596 C18.8574999,17.278596 19.1247195,17.0171181 19.1247195,16.6949399 C19.1247195,16.3727617 18.8574999,16.1112838 18.5282472,16.1112838 L18.5282472,16.1112838 Z M43.1705059,40.6948796 C42.8412532,40.6948796 42.5740336,40.9563575 42.5740336,41.2785357 L42.5740336,43.1680251 C42.5740336,43.4902033 42.8412532,43.7516812 43.1705059,43.7516812 C43.5005539,43.7516812 43.7669782,43.4902033 43.7669782,43.1680251 L43.7669782,41.2785357 C43.7669782,40.9563575 43.5005539,40.6948796 43.1705059,40.6948796 L43.1705059,40.6948796 Z M37.498452,40.6948796 C37.1691993,40.6948796 36.9019797,40.9563575 36.9019797,41.2785357 L36.9019797,43.1680251 C36.9019797,43.4902033 37.1691993,43.7516812 37.498452,43.7516812 C37.8277047,43.7516812 38.0949243,43.4902033 38.0949243,43.1680251 L38.0949243,41.2785357 C38.0949243,40.9563575 37.8277047,40.6948796 37.498452,40.6948796 L37.498452,40.6948796 Z M43.4035277,38.315119 L20.8035902,38.315119 L20.8035902,16.5836561 C20.8035902,16.2614779 20.5363706,16 20.2071179,16 C19.8778652,16 19.6106456,16.2614779 19.6106456,16.5836561 L19.6106456,38.8987751 C19.6106456,39.2209533 19.8778652,39.4824312 20.2071179,39.4824312 L43.4035277,39.4824312 C43.7327804,39.4824312 44,39.2209533 44,38.8987751 C44,38.576597 43.7327804,38.315119 43.4035277,38.315119 L43.4035277,38.315119 Z M26.1527537,40.6948796 C25.823501,40.6948796 25.5562814,40.9563575 25.5562814,41.2785357 L25.5562814,43.1680251 C25.5562814,43.4902033 25.823501,43.7516812 26.1527537,43.7516812 C26.4820064,43.7516812 26.749226,43.4902033 26.749226,43.1680251 L26.749226,41.2785357 C26.749226,40.9563575 26.4820064,40.6948796 26.1527537,40.6948796 L26.1527537,40.6948796 Z M31.8248076,40.6948796 C31.4955549,40.6948796 31.2283353,40.9563575 31.2283353,41.2785357 L31.2283353,43.1680251 C31.2283353,43.4902033 31.4955549,43.7516812 31.8248076,43.7516812 C32.1540603,43.7516812 32.4212799,43.4902033 32.4212799,43.1680251 L32.4212799,41.2785357 C32.4212799,40.9563575 32.1540603,40.6948796 31.8248076,40.6948796 L31.8248076,40.6948796 Z M20.4799046,40.6948796 C20.1506519,40.6948796 19.8834323,40.9563575 19.8834323,41.2785357 L19.8834323,43.1680251 C19.8834323,43.4902033 20.1506519,43.7516812 20.4799046,43.7516812 C20.8091573,43.7516812 21.0763769,43.4902033 21.0763769,43.1680251 L21.0763769,41.2785357 C21.0763769,40.9563575 20.8091573,40.6948796 20.4799046,40.6948796 L20.4799046,40.6948796 Z" id="Fill-167" stroke="#FFFFFF" stroke-width="0.5" fill="#FFFFFF"></path>
                </g>
            </g>
        </g>
    </g>
</svg>