<?xml version="1.0" encoding="UTF-8" standalone="no"?>
<svg width="80px" height="80px" viewBox="0 0 80 80" version="1.1" xmlns="http://www.w3.org/2000/svg" xmlns:xlink="http://www.w3.org/1999/xlink" xmlns:sketch="http://www.bohemiancoding.com/sketch/ns">
    <!-- Generator: Sketch 3.3.2 (12043) - http://www.bohemiancoding.com/sketch -->
    <title>help</title>
    <desc>Created with Sketch.</desc>
    <defs></defs>
    <g id="Page-1" stroke="none" stroke-width="1" fill="none" fill-rule="evenodd" sketch:type="MSPage">
        <path d="M40,80 C62.09139,80 80,62.09139 80,40 C80,17.90861 62.09139,0 40,0 C17.90861,0 0,17.90861 0,40 C0,62.09139 17.90861,80 40,80 Z M28.13,23.55 C28.8100034,22.949997 29.554996,22.3800027 30.365,21.84 C31.1750041,21.2999973 32.0499953,20.830002 32.99,20.43 C33.9300047,20.029998 34.9499945,19.7150012 36.05,19.485 C37.1500055,19.2549988 38.3399936,19.14 39.62,19.14 C41.3600087,19.14 42.9449929,19.3799976 44.375,19.86 C45.8050071,20.3400024 47.0299949,21.0249955 48.05,21.915 C49.0700051,22.8050045 49.8599972,23.8799937 50.42,25.14 C50.9800028,26.4000063 51.26,27.8099922 51.26,29.37 C51.26,30.8900076 51.0400022,32.2049945 50.6,33.315 C50.1599978,34.4250056 49.6100033,35.3899959 48.95,36.21 C48.2899967,37.0300041 47.565004,37.739997 46.775,38.34 C45.9849961,38.940003 45.2400035,39.5049973 44.54,40.035 C43.8399965,40.5650026 43.2350025,41.0849975 42.725,41.595 C42.2149974,42.1050025 41.9100005,42.6799968 41.81,43.32 L41.12,47.7 L36.05,47.7 L35.54,42.81 C35.4199994,41.8699953 35.554998,41.0450035 35.945,40.335 C36.3350019,39.6249964 36.8549967,38.975003 37.505,38.385 C38.1550032,37.7949971 38.879996,37.2250027 39.68,36.675 C40.480004,36.1249973 41.2299965,35.5250032 41.93,34.875 C42.6300035,34.2249968 43.2149976,33.4950041 43.685,32.685 C44.1550023,31.8749959 44.39,30.9100056 44.39,29.79 C44.39,29.0699964 44.2550013,28.4250028 43.985,27.855 C43.7149986,27.2849972 43.3400024,26.795002 42.86,26.385 C42.3799976,25.9749979 41.8050033,25.6600011 41.135,25.44 C40.4649966,25.2199989 39.7400039,25.11 38.96,25.11 C37.8199943,25.11 36.8550039,25.2349987 36.065,25.485 C35.274996,25.7350013 34.6050028,26.0149985 34.055,26.325 C33.5049973,26.6350015 33.0400019,26.9149987 32.66,27.165 C32.2799981,27.4150012 31.9400015,27.54 31.64,27.54 C30.9199964,27.54 30.4000016,27.240003 30.08,26.64 L28.13,23.55 Z M33.8,58.92 C33.8,58.2999969 33.9149988,57.7100028 34.145,57.15 C34.3750012,56.5899972 34.689998,56.110002 35.09,55.71 C35.490002,55.309998 35.9699972,54.9900012 36.53,54.75 C37.0900028,54.5099988 37.6899968,54.39 38.33,54.39 C38.9700032,54.39 39.5649973,54.5099988 40.115,54.75 C40.6650027,54.9900012 41.144998,55.309998 41.555,55.71 C41.9650021,56.110002 42.2899988,56.5899972 42.53,57.15 C42.7700012,57.7100028 42.89,58.2999969 42.89,58.92 C42.89,59.5600032 42.7700012,60.1549973 42.53,60.705 C42.2899988,61.2550028 41.9650021,61.729998 41.555,62.13 C41.144998,62.530002 40.6650027,62.8449988 40.115,63.075 C39.5649973,63.3050011 38.9700032,63.42 38.33,63.42 C37.6899968,63.42 37.0900028,63.3050011 36.53,63.075 C35.9699972,62.8449988 35.490002,62.530002 35.09,62.13 C34.689998,61.729998 34.3750012,61.2550028 34.145,60.705 C33.9149988,60.1549973 33.8,59.5600032 33.8,58.92 Z" id="help" fill="#ef233c" sketch:type="MSShapeGroup"></path>
    </g>
</svg>
