<?xml version="1.0" encoding="UTF-8" standalone="no"?>
<svg width="27px" height="25px" viewBox="0 0 27 25" version="1.1" xmlns="http://www.w3.org/2000/svg" xmlns:xlink="http://www.w3.org/1999/xlink" xmlns:sketch="http://www.bohemiancoding.com/sketch/ns">
    <!-- Generator: Sketch 3.3 (11970) - http://www.bohemiancoding.com/sketch -->
    <title>Fill 183</title>
    <desc>Created with Sketch.</desc>
    <defs></defs>
    <g id="3-1_dashboard" stroke="none" stroke-width="1" fill="none" fill-rule="evenodd" sketch:type="MSPage">
        <g sketch:type="MSArtboardGroup" transform="translate(-112.000000, -92.000000)" id="nav-//-desktop" fill="#ffffff">
            <g sketch:type="MSLayerGroup">
                <g id="content" transform="translate(16.000000, 6.000000)" sketch:type="MSShapeGroup">
                    <g id="links" transform="translate(96.000000, 81.000000)">
                        <g id="dashboard">
                            <path d="M22.0365129,17.2838828 C21.7964439,17.2838828 21.6016053,17.4772138 21.6016053,17.7154253 L21.6016053,27.2387038 C21.6016053,28.285338 20.7433875,29.1369151 19.6885916,29.1369151 L16.3096493,29.1369151 L16.3096493,22.5279865 C16.3096493,22.2897751 16.1148107,22.0964441 15.8747417,22.0964441 L11.1243907,22.0964441 C10.8843216,22.0964441 10.689483,22.2897751 10.689483,22.5279865 L10.689483,29.1369151 L7.30938098,29.1369151 C6.2551649,29.1369151 5.39752706,28.285338 5.39752706,27.2387038 L5.39752706,17.7154253 C5.39752706,17.4772138 5.20268845,17.2838828 4.96261944,17.2838828 C4.72255043,17.2838828 4.52771182,17.4772138 4.52771182,17.7154253 L4.52771182,27.2387038 C4.52771182,28.7611855 5.77560676,30 7.30938098,30 L19.6885916,30 C21.2229457,30 22.4714205,28.7611855 22.4714205,27.2387038 L22.4714205,17.7154253 C22.4714205,17.4772138 22.2765819,17.2838828 22.0365129,17.2838828 L22.0365129,17.2838828 Z M11.5592983,22.959529 L15.439834,22.959529 L15.439834,29.1363397 L11.5592983,29.1363397 L11.5592983,22.959529 Z M26.3339801,14.0898934 L23.1904678,11.8406942 C22.7793351,11.5449438 22.4180718,10.8464204 22.4180718,10.3458312 L22.4180718,6.64722483 C22.4180718,5.76745365 21.6967051,5.05166859 20.8106533,5.05166859 L19.7071476,5.05166859 C18.8216757,5.05166859 18.1014687,5.76745365 18.1014687,6.64722483 L18.1014687,7.87625769 C18.1014687,8.03391453 18.0643566,8.10526288 18.0602974,8.11101678 C18.0469603,8.11101678 17.9721562,8.10641366 17.8376247,8.00974816 L14.5868352,5.68229594 C14.192519,5.39862871 13.8741666,5.16962353 13.8057411,5.11726304 C13.721659,5.0453393 13.6062635,4.99700655 13.4989863,5.00045889 C13.3975078,4.99470499 13.279213,5.04361313 13.1951308,5.11611226 C13.1203267,5.17365125 12.7265903,5.45674309 12.2626889,5.79046925 L0.666311993,14.0898934 C0.318385893,14.3396126 0.0893345448,14.709013 0.0209090787,15.1313492 C-0.0475163875,15.55311 0.0533821812,15.9748708 0.303309096,16.3166524 L0.744595365,16.9265657 C1.0414923,17.3362433 1.51525167,17.5710024 2.04409935,17.5710024 L2.04467922,17.5710024 C2.1003474,17.5710024 2.15659545,17.5681255 2.2128435,17.5629469 C2.28938725,17.5554669 2.36245173,17.5284236 2.42507842,17.4835431 L13.4995662,9.55524547 L24.5757935,17.4835431 C24.6384202,17.5284236 24.7114847,17.5554669 24.7880284,17.5629469 C24.8442765,17.5681255 24.9005246,17.5710024 24.9567726,17.5710024 C25.4873599,17.5710024 25.9605394,17.3356679 26.2527973,16.9271411 L26.6964031,16.3172278 C27.2153929,15.6031689 27.0524475,14.604292 26.3339801,14.0898934 L26.3339801,14.0898934 Z M25.9912729,15.8120354 L25.5459275,16.4248257 C25.4206741,16.5985934 25.2148178,16.7015882 24.9788079,16.7079175 L13.7576113,8.67547429 L13.7570315,8.67604968 C13.6114824,8.57075332 13.3853304,8.56672559 13.2345624,8.68122819 L2.02206403,16.7079175 C1.78547428,16.7015882 1.57845825,16.5985934 1.45088535,16.4225241 L1.0090192,15.81146 C0.894203587,15.654954 0.848393318,15.4621984 0.879706667,15.268292 C0.911020016,15.0738102 1.01597772,14.9040701 1.17544385,14.7901429 L12.7729805,6.49014338 C13.1145279,6.2438765 13.3429994,6.07931498 13.4989863,5.964237 C13.6311982,6.06090251 13.8161789,6.19324219 14.0759637,6.3808193 L17.3290728,8.71057307 C17.5743607,8.88491622 17.8202284,8.97410166 18.0602974,8.97410166 C18.5137611,8.97410166 18.9712839,8.63462161 18.9712839,7.87625769 L18.9712839,6.64722483 C18.9712839,6.24330111 19.3012339,5.91475347 19.7071476,5.91475347 L20.8106533,5.91475347 C21.2171469,5.91475347 21.5482566,6.24330111 21.5482566,6.64722483 L21.5482566,10.3458312 C21.5482566,11.120306 22.0457909,12.0840842 22.6813359,12.5403684 L25.8254281,14.7901429 C26.1547981,15.0260528 26.2290224,15.4846386 25.9912729,15.8120354 L25.9912729,15.8120354 Z" id="Fill-183"></path>
                        </g>
                    </g>
                </g>
            </g>
        </g>
    </g>
</svg>