<?xml version="1.0" encoding="UTF-8" standalone="no"?>
<svg width="128px" height="129px" viewBox="0 0 128 129" version="1.1" xmlns="http://www.w3.org/2000/svg" xmlns:xlink="http://www.w3.org/1999/xlink">
    <!-- Generator: Sketch 3.6 (26304) - http://www.bohemiancoding.com/sketch -->
    <title>icon</title>
    <desc>Created with Sketch.</desc>
    <defs>
        <ellipse id="path-1" cx="61.6515861" cy="62.0940255" rx="61.6284021" ry="61.8014741"></ellipse>
    </defs>
    <g id="Page-1" stroke="none" stroke-width="1" fill="none" fill-rule="evenodd">
        <g id="icon" transform="translate(2.000000, 2.000000)">
            <ellipse id="Mask" stroke="#EF233C" stroke-width="2" fill-opacity="0.4" fill="#FFA2BB" cx="61.8565232" cy="62.0968562" rx="61.8565232" ry="62.0968562"></ellipse>
            <g id="pie" transform="translate(57.926829, 12.195122)">
                <rect id="bg-copy-2" stroke="#EF233C" stroke-width="2" fill="#FFFFFF" x="0.740507998" y="0.693641179" width="62.8384135" height="50.3188334" rx="2"></rect>
                <path d="M35.0461771,13.5078953 L53.1392251,13.5078953 L53.1392251,14.0638466 L35.0461771,14.0638466 L35.0461771,13.5078953 Z M40.9576228,9.20483244 L53.0196547,9.20483244 L53.0196547,10.316735 L40.9576228,10.316735 L40.9576228,9.20483244 Z M32.6278585,18.7671943 L53.1333128,18.7671943 L53.1333128,19.3231456 L32.6278585,19.3231456 L32.6278585,18.7671943 Z M35.0461771,21.1577848 L53.1392251,21.1577848 L53.1392251,21.713736 L35.0461771,21.713736 L35.0461771,21.1577848 Z M38.5393041,15.8984857 L53.0137424,15.8984857 L53.0137424,16.454437 L38.5393041,16.454437 L38.5393041,15.8984857 Z" id="lines-copy" fill="#FFA2BB"></path>
                <path d="M17.9180961,18.4453897 L15.9816477,21.7889013 C13.9129203,20.4159603 12.5468986,18.0712914 12.5468986,15.4077111 C12.5468986,11.3384487 15.7330317,8.01926854 19.752288,7.77047817 L19.752288,11.6255767 C17.861804,11.8640719 16.3897729,13.4595864 16.3897729,15.4077111 C16.3897729,16.6506454 16.9958663,17.7458258 17.9180961,18.4453897 L17.9180961,18.4453897 Z M23.2799266,13.100452 L26.6340053,11.1701045 C25.3402176,9.23227498 23.184245,7.92293073 20.7130066,7.77047817 L20.7130066,11.6255767 C21.7600397,11.7574389 22.6701104,12.3026947 23.2799266,13.100452 L23.2799266,13.100452 Z M27.1096811,12.0024883 L23.7743664,13.9225406 C23.9676209,14.3789406 24.0755216,14.8811602 24.0755216,15.4077111 C24.0755216,17.520439 22.3520525,19.2384783 20.2326473,19.2384783 C19.7044322,19.2384783 19.2006254,19.1318453 18.7427829,18.9382718 L16.8166622,22.2630784 C17.8468228,22.7746654 19.003618,23.0692754 20.2326473,23.0692754 C24.477072,23.0692754 27.918396,19.6387934 27.918396,15.407741 C27.918396,14.182524 27.6228549,13.0293733 27.1096811,12.0024883 L27.1096811,12.0024883 Z" id="Shape" fill="#FFA2BB"></path>
            </g>
            <g id="portfolio">
                <mask id="mask-2" fill="white">
                    <use xlink:href="#path-1"></use>
                </mask>
                <use id="Mask" xlink:href="#path-1"></use>
                <rect id="bg-copy" stroke="#EF233C" stroke-width="2" fill="#FFFFFF" mask="url(#mask-2)" x="6.41810578" y="38.9585364" width="109.73763" height="90.3491632" rx="2"></rect>
                <rect id="line" fill-opacity="0.1" fill="#FFA2BB" mask="url(#mask-2)" x="16.1345407" y="63.375537" width="88.8536199" height="0.786315221"></rect>
                <rect id="line" fill-opacity="0.1" fill="#FFA2BB" mask="url(#mask-2)" x="16.1345407" y="72.8113197" width="88.8536199" height="0.786315221"></rect>
                <rect id="line" fill-opacity="0.1" fill="#FFA2BB" mask="url(#mask-2)" x="16.1345407" y="82.2471023" width="88.8536199" height="0.786315221"></rect>
                <rect id="line" fill-opacity="0.1" fill="#FFA2BB" mask="url(#mask-2)" x="16.1345407" y="91.682885" width="88.8536199" height="0.786315221"></rect>
                <rect id="line" fill-opacity="0.1" fill="#FFA2BB" mask="url(#mask-2)" x="16.1345407" y="101.118668" width="88.8536199" height="0.786315221"></rect>
                <rect id="line" fill-opacity="0.1" fill="#FFA2BB" mask="url(#mask-2)" x="16.1345407" y="110.55445" width="88.8536199" height="0.786315221"></rect>
                <rect id="Rectangle-path" fill="#FFA2BB" mask="url(#mask-2)" x="16.2716384" y="48.1595416" width="46.5675338" height="1.9423085"></rect>
                <rect id="Rectangle-path" fill="#FFA2BB" mask="url(#mask-2)" x="93.8841947" y="48.1595416" width="12.418009" height="1.9423085"></rect>
                <rect id="Rectangle-path" fill="#FFA2BB" mask="url(#mask-2)" x="16.2716384" y="53.7633388" width="27.9405203" height="1.39207946"></rect>
                <path d="M87.1439354,81.7680055 C77.7194665,89.9788749 64.6526447,96.4014232 57.7587786,100.330011 C44.0768072,108.126916 19.5881305,110.294916 19.5881305,110.294916 C19.5881305,110.294916 28.4510163,110.816741 39.4201576,110.294918 C48.6022099,109.85811 59.3907118,108.567437 66.4381126,106.804222 C72.6301241,105.25502 82.3289506,102.489684 90.0918676,98.5866067 C98.5886415,94.3145576 105.681855,88.9515421 105.681855,88.9515421 L105.070458,60.90491 C105.070458,60.90491 97.2522115,72.9613837 87.1439354,81.7680055 Z" id="Path-3017" fill-opacity="0.4" fill="#FFA2BB" mask="url(#mask-2)"></path>
                <path d="M29.3713769,110.03474 C29.3713769,110.03474 43.7434453,106.869714 57.1146318,100.709799 C61.1573658,98.847369 69.7845329,94.0663498 77.2167369,88.9103703 C83.3947713,84.624452 89.7738006,79.6184026 91.7949966,77.6932893 C99.4498745,70.4023052 103.56212,62.5371324 103.56212,62.5371324" id="Line" stroke="#FFA2BB" stroke-width="2" stroke-linecap="square" mask="url(#mask-2)"></path>
                <path d="M18.678817,109.765514 C18.678817,109.765514 33.2983061,111.452012 47.9464835,109.98093 C52.3753115,109.536153 62.0890058,107.824342 70.7949155,105.368956 C78.0317204,103.327912 85.6930214,100.671408 88.2308552,99.5092148 C97.8423967,95.1076384 104.291251,89.0097877 104.291251,89.0097877" id="Line-Copy-2" stroke="#FFA2BB" stroke-width="2" stroke-linecap="square" mask="url(#mask-2)"></path>
                <path d="M23.2149521,110.422085 C23.2149521,110.422085 37.9182774,109.800827 52.1559835,106.056377 C56.4607069,104.924255 65.7870232,101.713962 74.0016418,97.9269022 C80.8300599,94.778901 87.9814688,90.9566116 90.3062506,89.4117221 C99.1108999,83.56076 104.526444,76.5291608 104.526444,76.5291608" id="Line-Copy" stroke="#FFA2BB" stroke-width="2" stroke-linecap="square" mask="url(#mask-2)"></path>
            </g>
        </g>
    </g>
</svg>