<svg width="85" height="85" viewBox="0 0 85 85" xmlns="http://www.w3.org/2000/svg">
  <title>
    Multiple
  </title>
  <g transform="translate(1 1)" fill="none" fill-rule="evenodd">
    <circle stroke="#FFF" stroke-width="2" fill="#EF233C" cx="41.5" cy="41.5" r="41.5"/>
    <path d="M45.074 32.486l.058-.063c.237-.172.352-.44.31-.722-.585-3.51-.202-4.98-.072-5.34 1.02-3.13 4.224-4.58 4.853-4.84.134-.05.382-.13.633-.16l.074-.016.515-.027.004.03.12-.01c.1-.01.2-.024.33-.05l.11-.026c.1 0 1.35.16 3.2.726l1.29.44c2.35.696 3.43 1.99 3.64 2.25 1.88 2.138 1.38 5.36.91 7.096-.05.205-.02.416.09.59l.106.13c.135.187.26.9-.15 2.424-.08.46-.25.837-.503 1.09-.094.1-.16.234-.184.38-.636 3.736-3.984 7.917-7.513 7.917-2.994 0-6.412-3.846-7.03-7.914-.02-.15-.084-.283-.19-.4-.255-.264-.42-.646-.516-1.21-.3-1.067-.33-1.925-.1-2.28zM57.986 64.3c-5.665 2.387-9.072 1.035-13.38 0C40.3 63.266 35.92 59 35.92 59s-.213-10.04 4.49-11.593c4.705-1.552 7.804-4.03 7.804-4.03s3.144 1.917 4.67 1.917c1.73 0 5.102-1.918 5.102-1.918s1.92 1.4 3.09 1.918c1.855.824 5.638 1.29 7.493 2.113v1.517c0 2.12-4.6 12.855-10.59 15.376z" fill="#FFF"/>
    <path d="M24.074 32.486l.058-.063c.237-.172.352-.44.31-.722-.585-3.51-.202-4.98-.072-5.34 1.02-3.13 4.224-4.58 4.853-4.84.134-.05.382-.13.633-.16l.074-.016.515-.027.004.03.12-.01c.1-.01.2-.024.33-.05l.11-.026c.1 0 1.35.16 3.2.726l1.29.44c2.35.696 3.43 1.99 3.64 2.25 1.88 2.138 1.38 5.36.91 7.096-.05.205-.02.416.09.59l.106.13c.135.187.26.9-.15 2.424-.08.46-.25.837-.503 1.09-.094.1-.16.234-.184.38-.636 3.736-3.984 7.917-7.513 7.917-2.994 0-6.412-3.846-7.03-7.914-.02-.15-.084-.283-.19-.4-.255-.264-.42-.646-.516-1.21-.3-1.067-.33-1.925-.1-2.28zM40.076 64.3c-5.985 2.03-10.685.003-14.992-1.032-4.307-1.034-8.472-8.84-8.472-8.84s-1.905-5.468 2.8-7.02c4.703-1.553 7.802-4.032 7.802-4.032s3.144 1.918 4.67 1.918c1.73 0 5.102-1.918 5.102-1.918s1.92 1.4 3.09 1.918c1.855.824 4.13 1.29 5.985 2.113 0 0 2.79 2.256 2.79 10.423 0 2.12-2.79 4.44-8.77 6.47z" fill="#FFF"/>
    <path d="M34.074 37.486l.058-.063c.237-.172.352-.44.31-.722-.585-3.51-.202-4.98-.072-5.34 1.02-3.13 4.224-4.58 4.853-4.84.134-.05.382-.13.633-.16l.074-.016.515-.027.004.03.12-.01c.1-.01.2-.024.33-.05l.11-.026c.1 0 1.35.16 3.2.726l1.29.44c2.35.696 3.43 1.99 3.64 2.25 1.88 2.138 1.38 5.36.91 7.096-.05.205-.02.416.09.59l.106.13c.135.187.26.9-.15 2.424-.08.46-.25.837-.503 1.09-.094.1-.16.234-.184.38-.636 3.736-3.984 7.917-7.513 7.917-2.994 0-6.412-3.846-7.03-7.914-.02-.15-.084-.283-.19-.4-.255-.264-.42-.646-.516-1.21-.3-1.067-.33-1.925-.1-2.28zM50.076 69.3c-5.985 2.03-12.162 1.035-16.47 0C29.3 68.266 24.92 64 24.92 64s-.213-10.04 4.49-11.593c4.705-1.552 7.804-4.03 7.804-4.03s3.144 1.917 4.67 1.917c1.73 0 5.102-1.918 5.102-1.918s1.92 1.4 3.09 1.918c1.855.824 4.13 1.29 5.985 2.113 0 0 2.79 2.256 2.79 10.423 0 2.12-2.79 4.44-8.77 6.47z" stroke="#EF233C" fill="#FFF"/>
    <circle stroke="#FFF" stroke-width="2" cx="42" cy="42" r="28"/>
  </g>
</svg>
