<?xml version="1.0" encoding="UTF-8" standalone="no"?>
<svg width="20px" height="20px" viewBox="0 0 20 20" version="1.1" xmlns="http://www.w3.org/2000/svg" xmlns:xlink="http://www.w3.org/1999/xlink" xmlns:sketch="http://www.bohemiancoding.com/sketch/ns">
    <!-- Generator: Sketch 3.5.2 (25235) - http://www.bohemiancoding.com/sketch -->
    <title>user</title>
    <desc>Created with Sketch.</desc>
    <defs></defs>
    <g id="Page-1" stroke="none" stroke-width="1" fill="none" fill-rule="evenodd" sketch:type="MSPage">
        <g id="user" sketch:type="MSLayerGroup" fill="#000000">
            <path d="M10,0 C4.486,0 0,4.486 0,10 C0,15.514 4.486,20 10,20 C15.514,20 20,15.514 20,10 C20,4.486 15.514,0 10,0 L10,0 Z M10,19.2304444 C4.91044444,19.2304444 0.769555556,15.0895556 0.769555556,10 C0.769555556,4.91044444 4.91044444,0.769555556 10,0.769555556 C15.0895556,0.769555556 19.2304444,4.91044444 19.2304444,10 C19.2304444,15.0895556 15.0895556,19.2304444 10,19.2304444 L10,19.2304444 Z" id="Shape" sketch:type="MSShapeGroup"></path>
            <path d="M10.0006667,11.0655556 C12.1331111,11.0655556 13.5828889,9.336 13.5828889,7.20288889 C13.5828889,5.06933333 12.1331111,3.34044444 10.0006667,3.34044444 C7.86688889,3.34044444 6.41711111,5.06933333 6.41711111,7.20288889 C6.41711111,9.336 7.86688889,11.0655556 10.0006667,11.0655556 L10.0006667,11.0655556 Z" id="Shape" sketch:type="MSShapeGroup"></path>
            <path d="M12.8937778,10.812 C12.1288889,11.4988889 11.1275556,11.9048889 10.0004444,11.9048889 C8.87288889,11.9048889 7.87088889,11.4988889 7.106,10.812 C5.28666667,11.8068889 4.03066667,13.6955556 3.93555556,15.8917778 C5.47422222,17.4748889 7.62355556,18.4615556 10,18.4615556 C12.3764444,18.4615556 14.5257778,17.4748889 16.0648889,15.892 C15.9697778,13.6955556 14.7131111,11.8068889 12.8937778,10.812 L12.8937778,10.812 Z" id="Shape" sketch:type="MSShapeGroup"></path>
        </g>
    </g>
</svg>