<?xml version="1.0" encoding="UTF-8" standalone="no"?>
<svg width="20px" height="17px" viewBox="0 0 20 17" version="1.1" xmlns="http://www.w3.org/2000/svg" xmlns:xlink="http://www.w3.org/1999/xlink" xmlns:sketch="http://www.bohemiancoding.com/sketch/ns">
    <!-- Generator: Sketch 3.3 (11970) - http://www.bohemiancoding.com/sketch -->
    <title>Fill 92</title>
    <desc>Created with Sketch.</desc>
    <defs></defs>
    <g id="3-3_activity" stroke="none" stroke-width="1" fill="none" fill-rule="evenodd" sketch:type="MSPage">
        <g sketch:type="MSArtboardGroup" transform="translate(-224.000000, -711.000000)" id="content" fill="#000000">
            <g sketch:type="MSLayerGroup" transform="translate(214.000000, 220.000000)">
                <g id="notification" transform="translate(0.000000, 453.000000)" sketch:type="MSShapeGroup">
                    <g id="btn-//-activity" transform="translate(0.000000, 26.000000)">
                        <g id="Fill-92">
                            <path d="M19.9997933,20.6905079 C22.2692014,20.6905079 24.1157604,18.740939 24.1157604,16.3444201 C24.1157604,13.949152 22.2692014,12 19.9997933,12 C17.7315698,12 15.8861952,13.949152 15.8861952,16.3444201 C15.8861952,18.740939 17.7315698,20.6905079 19.9997933,20.6905079 L19.9997933,20.6905079 Z M19.9997933,12.6253964 C21.9426877,12.6253964 23.5235349,14.2939539 23.5235349,16.3444201 C23.5235349,18.3961371 21.9426877,20.0651115 19.9997933,20.0651115 C18.0580834,20.0651115 16.4784207,18.3961371 16.4784207,16.3444201 C16.4784207,14.2939539 18.0580834,12.6253964 19.9997933,12.6253964 L19.9997933,12.6253964 Z M26.2067112,19.2187418 C25.6437021,19.2187418 25.1162267,19.0194488 24.6807435,18.6425433 C24.5547969,18.5328904 24.3676537,18.5520693 24.2642116,18.6859041 C24.1603747,18.819322 24.1789311,19.0165303 24.3052726,19.1261831 C24.8398548,19.5889764 25.5149918,19.8441381 26.2067112,19.8441381 C27.8653373,19.8441381 29.214427,18.4199022 29.214427,16.6692093 C29.214427,14.9189333 27.8653373,13.4951142 26.2067112,13.4951142 C25.5142022,13.4951142 24.8390651,13.749859 24.3048778,14.2126523 C24.1789311,14.3218882 24.1603747,14.5190966 24.2642116,14.6525145 C24.3676537,14.7859323 24.5547969,14.8055281 24.6811383,14.6962922 C25.10912,14.3248068 25.6512037,14.1205106 26.2067112,14.1205106 C27.5384289,14.1205106 28.6222015,15.2637352 28.6222015,16.6692093 C28.6222015,18.0751003 27.5384289,19.2187418 26.2067112,19.2187418 L26.2067112,19.2187418 Z M24.2574997,22.9598628 C23.1879405,21.0774198 20.9426163,21.3129857 20.8790508,21.3229921 L19.0498637,21.3229921 C18.969321,21.3213244 17.1626385,21.2712927 16.1009756,22.8827306 C15.5123035,23.7741289 14.6476543,27.1946301 14.3436452,28.6180322 C14.3073221,28.7868892 14.4076056,28.9540785 14.5671116,28.9920193 C14.7266177,29.0307938 14.8849393,28.9244764 14.9208676,28.7556194 C15.2406694,27.2609221 16.0839985,24.0021901 16.5869953,23.2404573 C17.4603305,21.9146171 19.0170939,21.951307 19.0395984,21.9483885 L20.9106361,21.9467207 C20.930377,21.9442191 22.889064,21.7453431 23.7580562,23.2959092 C23.7647681,23.3080002 23.7722696,23.3196742 23.7805608,23.3309314 C24.3139585,24.0417986 25.2070346,27.2413264 25.5359171,28.7568702 C25.5675025,28.9015452 25.6895009,28.999524 25.8245283,28.999524 C25.8462433,28.999524 25.868353,28.9970224 25.8908576,28.9920193 C26.0499688,28.9532447 26.1498575,28.7856385 26.1131395,28.6167814 C25.8549292,27.4281114 24.9397435,23.8975405 24.2574997,22.9598628 L24.2574997,22.9598628 Z M13.7920859,19.8441381 C14.4842001,19.8441381 15.1601267,19.5889764 15.6947089,19.1261831 C15.8210504,19.0165303 15.8396068,18.819322 15.7357699,18.6859041 C15.631933,18.5520693 15.4455794,18.5328904 15.319238,18.6425433 C14.8837549,19.0194488 14.3558845,19.2187418 13.7920859,19.2187418 C12.4603682,19.2187418 11.3769904,18.0751003 11.3769904,16.6692093 C11.3769904,15.2637352 12.4603682,14.1205106 13.7920859,14.1205106 C14.3558845,14.1205106 14.88336,14.3193867 15.3176587,14.6962922 C15.444395,14.8055281 15.6311434,14.7859323 15.7345855,14.6525145 C15.8384223,14.5190966 15.8198659,14.3218882 15.6935245,14.2126523 C15.1597319,13.749859 14.4842001,13.4951142 13.7920859,13.4951142 C12.1338546,13.4951142 10.7847649,14.9189333 10.7847649,16.6692093 C10.7847649,18.4199022 12.1338546,19.8441381 13.7920859,19.8441381 L13.7920859,19.8441381 Z M29.9930061,24.2360884 C29.6775473,22.7334694 29.35893,21.7311675 29.0462349,21.2562831 C28.2684455,20.0734502 26.9351485,20.1101401 26.8897446,20.1113909 L25.6168546,20.1134755 C25.5524994,20.104303 24.0241629,19.9442016 23.2053124,21.1678938 C23.1109512,21.3088164 23.1429314,21.504357 23.2763795,21.6035866 C23.4094328,21.7028161 23.594602,21.6698786 23.6889633,21.528539 C24.3036933,20.6092064 25.5402601,20.7326179 25.5844796,20.7367872 L26.9004046,20.7367872 C26.9106699,20.7288655 27.9640416,20.7067682 28.5602152,21.613176 C28.7445947,21.8933536 29.0426816,22.5996345 29.4145992,24.371174 C29.4453949,24.5166829 29.5677882,24.6163294 29.7036052,24.6163294 C29.7249253,24.6163294 29.7462454,24.6138278 29.7675656,24.6088246 C29.9274664,24.5713008 30.0281448,24.4045284 29.9930061,24.2360884 L29.9930061,24.2360884 Z M16.3820853,21.6461135 C16.4657865,21.7953748 16.6470075,21.8445727 16.7875624,21.7557664 C16.928512,21.667794 16.9751004,21.4760057 16.891794,21.3275783 C16.1084771,19.9312767 14.4526147,20.1051369 14.4147123,20.1113909 L13.1205022,20.1113909 C13.0668071,20.1113909 11.7311412,20.0721994 10.9529569,21.2562831 C10.6386826,21.733669 10.3204601,22.7363879 10.0069755,24.2360884 C9.97183674,24.4049454 10.0729099,24.5717177 10.2324159,24.6088246 C10.2541309,24.6138278 10.275451,24.6163294 10.2963763,24.6163294 C10.4321933,24.6163294 10.5549814,24.5166829 10.5853823,24.370757 C10.8735987,22.9911327 11.1768182,22.011762 11.4393715,21.613176 C12.0296229,20.7146899 13.0549626,20.7367872 13.110237,20.7367872 L14.4459028,20.7351195 C14.4597214,20.7334518 15.7953873,20.6000339 16.3820853,21.6461135 L16.3820853,21.6461135 Z"></path>
                        </g>
                    </g>
                </g>
            </g>
        </g>
    </g>
</svg>
