<?xml version="1.0" encoding="UTF-8" standalone="no"?>
<svg width="27px" height="25px" viewBox="0 0 27 25" version="1.1" xmlns="http://www.w3.org/2000/svg" xmlns:xlink="http://www.w3.org/1999/xlink" xmlns:sketch="http://www.bohemiancoding.com/sketch/ns">
    <!-- Generator: Sketch 3.3 (11970) - http://www.bohemiancoding.com/sketch -->
    <title>Fill 165</title>
    <desc>Created with Sketch.</desc>
    <defs></defs>
    <g id="3-1_dashboard" stroke="none" stroke-width="1" fill="none" fill-rule="evenodd" sketch:type="MSPage">
        <g sketch:type="MSArtboardGroup" transform="translate(-511.000000, -92.000000)" id="nav-//-desktop" fill="#ffffff">
            <g sketch:type="MSLayerGroup">
                <g id="content" transform="translate(16.000000, 6.000000)" sketch:type="MSShapeGroup">
                    <g id="links" transform="translate(96.000000, 81.000000)">
                        <g id="performance" transform="translate(399.000000, 0.000000)">
                            <path d="M9.15917012,11.1237251 C8.89529955,11.1237251 8.68229559,11.3426787 8.68229559,11.6124608 L8.68229559,29.5112643 C8.68229559,29.7810464 8.89529955,30 9.15917012,30 C9.42176903,30 9.63604465,29.7810464 9.63604465,29.5112643 L9.63604465,11.6124608 C9.63604465,11.3426787 9.42176903,11.1237251 9.15917012,11.1237251 L9.15917012,11.1237251 Z M4.81834024,15.1202796 C4.5551055,15.1202796 4.34082988,15.3392332 4.34082988,15.6090153 L4.34082988,29.5112643 C4.34082988,29.7810464 4.5551055,30 4.81834024,30 C5.08157498,30 5.29521477,29.7810464 5.29521477,29.5112643 L5.29521477,15.6090153 C5.29521477,15.3392332 5.08157498,15.1202796 4.81834024,15.1202796 L4.81834024,15.1202796 Z M13.5,15.27863 C13.2367653,15.27863 13.0231255,15.4975836 13.0231255,15.7673656 L13.0231255,29.5112643 C13.0231255,29.7810464 13.2367653,30 13.5,30 C13.7632347,30 13.9768745,29.7810464 13.9768745,29.5112643 L13.9768745,15.7673656 C13.9768745,15.4975836 13.7632347,15.27863 13.5,15.27863 L13.5,15.27863 Z M0.476874529,18.5394744 C0.213639789,18.5394744 0,18.7584279 0,19.02821 L0,29.5112643 C0,29.7810464 0.213639789,30 0.476874529,30 C0.740109269,30 0.953749058,29.7810464 0.953749058,29.5112643 L0.953749058,19.02821 C0.953749058,18.7584279 0.740109269,18.5394744 0.476874529,18.5394744 L0.476874529,18.5394744 Z M26.5224896,12.4687257 C26.2592549,12.4687257 26.0462509,12.6876793 26.0462509,12.9574614 L26.0462509,29.5112643 C26.0462509,29.7810464 26.2592549,30 26.5224896,30 C26.7857244,30 27,29.7810464 27,29.5112643 L27,12.9574614 C27,12.6876793 26.7857244,12.4687257 26.5224896,12.4687257 L26.5224896,12.4687257 Z M26.3762481,9.14988467 C26.6394829,9.14662643 26.8512151,8.92571791 26.8486718,8.65593582 L26.8130652,5.48306385 C26.8117935,5.34752116 26.7545686,5.21849494 26.6566503,5.12661264 C26.5587321,5.03538198 26.4296581,4.99106994 26.2954974,5.00149631 L23.2104371,5.26932345 C22.9478382,5.29213112 22.7532734,5.52802753 22.7748917,5.79715798 C22.7971458,6.06628842 23.0317681,6.25982774 23.290552,6.24353655 L25.1656226,6.08062466 L17.8465524,14.3383025 L9.47072815,5.92879078 C9.28887999,5.74632947 9.00084778,5.74111629 8.81454879,5.91706113 L0.170403165,14.0196469 C-0.0241616428,14.2021082 -0.0375141296,14.5109891 0.140519028,14.7103933 C0.318552185,14.9097975 0.619936888,14.9228304 0.813865863,14.7410207 L9.12547099,6.95057416 L17.5330869,15.391365 C17.6221034,15.4812924 17.7422758,15.5308176 17.866899,15.5308176 L17.8808873,15.5308176 C18.0099614,15.5269077 18.1326771,15.4689111 18.2197862,15.3711639 L25.8733044,6.73683376 L25.8942869,8.66701383 C25.8974661,8.93484098 26.1098342,9.14988467 26.3717973,9.14988467 L26.3762481,9.14988467 L26.3762481,9.14988467 Z M17.8408299,18.5205766 C17.5775951,18.5205766 17.3639554,18.7395302 17.3639554,19.0093123 L17.3639554,29.5112643 C17.3639554,29.7810464 17.5775951,30 17.8408299,30 C18.1040646,30 18.3177044,29.7810464 18.3177044,29.5112643 L18.3177044,19.0093123 C18.3177044,18.7395302 18.1040646,18.5205766 17.8408299,18.5205766 L17.8408299,18.5205766 Z M22.1829314,15.1489521 C21.9190609,15.1489521 21.7054211,15.3679057 21.7054211,15.6376878 L21.7054211,29.5112643 C21.7054211,29.7810464 21.9190609,30 22.1829314,30 C22.4461662,30 22.6591701,29.7810464 22.6591701,29.5112643 L22.6591701,15.6376878 C22.6591701,15.3679057 22.4461662,15.1489521 22.1829314,15.1489521 L22.1829314,15.1489521 Z" id="Fill-165"></path>
                        </g>
                    </g>
                </g>
            </g>
        </g>
    </g>
</svg>