<?xml version="1.0" encoding="UTF-8" standalone="no"?>
<svg width="20px" height="20px" viewBox="0 0 20 20" version="1.1" xmlns="http://www.w3.org/2000/svg" xmlns:xlink="http://www.w3.org/1999/xlink" xmlns:sketch="http://www.bohemiancoding.com/sketch/ns">
    <!-- Generator: Sketch 3.3 (11970) - http://www.bohemiancoding.com/sketch -->
    <title>Fill 162</title>
    <desc>Created with Sketch.</desc>
    <defs></defs>
    <g id="3-3_activity" stroke="none" stroke-width="1" fill="none" fill-rule="evenodd" sketch:type="MSPage">
        <g sketch:type="MSArtboardGroup" transform="translate(-224.000000, -437.000000)" id="content" fill="#000000">
            <g sketch:type="MSLayerGroup" transform="translate(214.000000, 220.000000)">
                <g id="notification" transform="translate(0.000000, 181.000000)" sketch:type="MSShapeGroup">
                    <g id="btn-//-activity" transform="translate(0.000000, 26.000000)">
                        <path d="M28.6646293,19.9572481 L19.9153091,19.9572481 L19.9153091,11.0984342 C19.9153091,10.8812652 19.7412654,10.7050122 19.5268188,10.7050122 C14.2733936,10.7050122 10,15.0321295 10,20.3506701 C10,25.671309 14.2733936,30 19.5268188,30 C24.779726,30 29.0531196,25.671309 29.0531196,20.3506701 C29.0531196,20.1335012 28.8790759,19.9572481 28.6646293,19.9572481 L28.6646293,19.9572481 Z M19.5268188,29.213156 C14.7017689,29.213156 10.7769807,25.2374957 10.7769807,20.3506701 C10.7769807,15.597608 14.4930201,11.7069268 19.1383285,11.5002492 L19.1383285,20.3506701 C19.1383285,20.5678391 19.3123721,20.7440921 19.5268188,20.7440921 L28.2673331,20.7440921 C28.0637642,25.4488945 24.2213359,29.213156 19.5268188,29.213156 L19.5268188,29.213156 Z M21.1217011,17.6638603 C21.1683199,17.6827445 21.2164927,17.6921866 21.2651835,17.6921866 C21.3692989,17.6921866 21.4718604,17.6491725 21.5464505,17.569439 L26.2420036,12.5551446 C26.3129678,12.4790831 26.3518168,12.3778425 26.3492269,12.2734545 C26.345601,12.1690665 26.3020901,12.0693996 26.226464,11.9975346 C24.8739996,10.7092087 23.1112895,10 21.2651835,10 C21.0507368,10 20.8766932,10.176253 20.8766932,10.393422 L20.8766932,17.2987647 C20.8766932,17.4592808 20.9735568,17.6045847 21.1217011,17.6638603 L21.1217011,17.6638603 Z M21.6536738,10.7983843 C23.0304835,10.8817898 24.337883,11.4084507 25.4018285,12.3086002 L21.6536738,16.3120623 L21.6536738,10.7983843 L21.6536738,10.7983843 Z M27.7136049,13.1945865 C27.5582088,13.0456107 27.3132009,13.05243 27.1660926,13.2097988 L22.4700215,18.2240932 C22.4011292,18.2975319 22.3638341,18.4360165 22.3638341,18.5367325 C22.3638341,18.7539014 22.5378778,18.9301545 22.7518065,18.9301545 L29.6109917,18.9301545 C29.8259563,18.9301545 30,18.7539014 30,18.5367325 C30,16.4972329 29.1883142,14.5993653 27.7136049,13.1945865 L27.7136049,13.1945865 Z M23.6173629,18.1433105 L27.4551294,14.0438534 C28.5081971,15.170614 29.1220119,16.60267 29.2116236,18.1433105 L23.6173629,18.1433105 L23.6173629,18.1433105 Z" id="Fill-162"></path>
                    </g>
                </g>
            </g>
        </g>
    </g>
</svg>
