<?xml version="1.0" encoding="UTF-8" standalone="no"?>
<svg width="25px" height="25px" viewBox="0 0 25 25" version="1.1" xmlns="http://www.w3.org/2000/svg" xmlns:xlink="http://www.w3.org/1999/xlink" xmlns:sketch="http://www.bohemiancoding.com/sketch/ns">
    <!-- Generator: Sketch 3.3 (11970) - http://www.bohemiancoding.com/sketch -->
    <title>Fill 161</title>
    <desc>Created with Sketch.</desc>
    <defs></defs>
    <g id="3-1_dashboard" stroke="none" stroke-width="1" fill="none" fill-rule="evenodd" sketch:type="MSPage">
        <g sketch:type="MSArtboardGroup" transform="translate(-317.000000, -92.000000)" id="nav-//-desktop" fill="#ffffff">
            <g sketch:type="MSLayerGroup">
                <g id="content" transform="translate(16.000000, 6.000000)" sketch:type="MSShapeGroup">
                    <g id="links" transform="translate(96.000000, 81.000000)">
                        <g id="portfolio" transform="translate(205.000000, 0.000000)">
                            <path d="M23.3307866,17.4465602 L12.3941364,17.4465602 L12.3941364,6.37304273 C12.3941364,6.10158156 12.1765818,5.88126525 11.9085235,5.88126525 C5.34174199,5.88126525 0,11.2901618 0,17.9383377 C0,24.5891363 5.34174199,30 11.9085235,30 C18.4746575,30 23.8163995,24.5891363 23.8163995,17.9383377 C23.8163995,17.6668765 23.5988449,17.4465602 23.3307866,17.4465602 L23.3307866,17.4465602 Z M11.9085235,29.016445 C5.87721116,29.016445 0.971225816,24.0468697 0.971225816,17.9383377 C0.971225816,11.99701 5.61627515,7.13365856 11.4229106,6.87531146 L11.4229106,17.9383377 C11.4229106,18.2097988 11.6404652,18.4301151 11.9085235,18.4301151 L22.8341664,18.4301151 C22.5797053,24.3111181 17.7766699,29.016445 11.9085235,29.016445 L11.9085235,29.016445 Z M13.9021263,14.5798253 C13.9603999,14.6034306 14.0206159,14.6152333 14.0814794,14.6152333 C14.2116236,14.6152333 14.3398254,14.5614656 14.4330631,14.4617987 L20.3025045,8.19393081 C20.3912098,8.09885383 20.439771,7.97230309 20.4365336,7.84181813 C20.4320012,7.71133318 20.3776126,7.58674955 20.28308,7.49691819 C18.5924995,5.88651087 16.3891119,5 14.0814794,5 C13.813421,5 13.5958665,5.22031631 13.5958665,5.49177748 L13.5958665,14.1234558 C13.5958665,14.324101 13.7169459,14.5057308 13.9021263,14.5798253 L13.9021263,14.5798253 Z M14.5670923,5.99798043 C16.2881044,6.10223726 17.9223537,6.76056338 19.2522856,7.88575026 L14.5670923,12.8900779 L14.5670923,5.99798043 L14.5670923,5.99798043 Z M22.1420062,8.99323314 C21.947761,8.8070134 21.6415011,8.81553755 21.4576157,9.01224854 L15.5875269,15.2801165 C15.5014115,15.3719149 15.4547927,15.5450206 15.4547927,15.6709156 C15.4547927,15.9423768 15.6723473,16.1626931 15.9397581,16.1626931 L24.5137396,16.1626931 C24.7824454,16.1626931 25,15.9423768 25,15.6709156 C25,13.1215412 23.9853928,10.7492066 22.1420062,8.99323314 L22.1420062,8.99323314 Z M17.0217037,15.1791381 L21.8189117,10.0548168 C23.1352464,11.4632675 23.9025148,13.2533375 24.0145295,15.1791381 L17.0217037,15.1791381 L17.0217037,15.1791381 Z" id="Fill-161"></path>
                        </g>
                    </g>
                </g>
            </g>
        </g>
    </g>
</svg>