<?xml version="1.0" encoding="UTF-8" standalone="no"?>
<svg width="85px" height="85px" viewBox="0 0 85 85" version="1.1" xmlns="http://www.w3.org/2000/svg" xmlns:xlink="http://www.w3.org/1999/xlink" xmlns:sketch="http://www.bohemiancoding.com/sketch/ns">
    <!-- Generator: Sketch 3.4.1 (15681) - http://www.bohemiancoding.com/sketch -->
    <title>risk_assessment</title>
    <desc>Created with Sketch.</desc>
    <defs></defs>
    <g id="Page-1" stroke="none" stroke-width="1" fill="none" fill-rule="evenodd" sketch:type="MSPage">
        <g id="risk_assessment" sketch:type="MSLayerGroup" transform="translate(1.000000, 1.000000)">
            <circle id="Oval" stroke="#FFFFFF" stroke-width="2" fill="#EF233C" sketch:type="MSShapeGroup" cx="41.5" cy="41.5" r="41.5"></circle>
            <path d="M37.2800011,17.0003391 C37.0022949,17.0078981 36.7463135,17.1515182 36.5955876,17.3841661 L34.1553439,21.0353099 L25.8443687,21.0353099 C25.379392,21.0353099 25.0023246,21.4114099 25.0023246,21.8751939 L25.0023246,30.274034 C25.0023246,30.737818 25.379392,31.113918 25.8443687,31.113918 L34.2648096,31.113918 C34.7297863,31.113918 35.1068537,30.737818 35.1068537,30.274034 L35.1068537,23.6475171 L33.4227655,26.1671692 L33.4227655,29.43415 L26.6864128,29.43415 L26.6864128,22.7150779 L33.0323939,22.7150779 L30.6640607,26.2583806 L29.6290201,24.1934417 C29.4260874,23.7760194 28.9223767,23.6016595 28.5038807,23.8040715 C28.0853848,24.0064836 27.9105765,24.5089022 28.1135091,24.9263245 C28.1165405,24.9323717 28.1194034,24.9384189 28.1226032,24.944466 L29.8066914,28.3040021 C30.0146763,28.7189048 30.5204079,28.8872175 30.9365461,28.6797662 C31.0675682,28.6144232 31.1792232,28.5161568 31.2605647,28.3945416 L37.9969174,18.3159334 C38.2604772,17.9336182 38.1634737,17.4107064 37.7801753,17.1478227 C37.6331544,17.0472046 37.4581776,16.9954678 37.2800011,17.0003391 L37.2800011,17.0003391 L37.2800011,17.0003391 Z M41.0011623,24.3951819 C40.5361856,24.3951819 40.1591182,24.7712819 40.1591182,25.2350659 L40.1591182,26.9148339 C40.1591182,27.3786179 40.5361856,27.7547179 41.0011623,27.7547179 L56.1579559,27.7547179 C56.6229327,27.7547179 57,27.3786179 57,26.9148339 L57,25.2350659 C57,24.7712819 56.6229327,24.3951819 56.1579559,24.3951819 L41.0011623,24.3951819 L41.0011623,24.3951819 Z M25.8443687,32.7999012 C25.379392,32.7999012 25.0023246,33.1760013 25.0023246,33.6397852 L25.0023246,42.0386253 C25.0023246,42.5024093 25.379392,42.8785094 25.8443687,42.8785094 L34.2648096,42.8785094 C34.7297863,42.8785094 35.1068537,42.5024093 35.1068537,42.0386253 L35.1068537,33.6397852 C35.1068537,33.1760013 34.7297863,32.7999012 34.2648096,32.7999012 L25.8443687,32.7999012 L25.8443687,32.7999012 Z M26.6864128,34.4796692 L33.4227655,34.4796692 L33.4227655,41.1987413 L26.6864128,41.1987413 L26.6864128,34.4796692 L26.6864128,34.4796692 Z M41.0011623,36.1532221 C40.5361856,36.1532221 40.1591182,36.5293222 40.1591182,36.9931061 L40.1591182,38.6728741 C40.1591182,39.1366581 40.5361856,39.5127582 41.0011623,39.5127582 L56.1579559,39.5127582 C56.6229327,39.5127582 57,39.1366581 57,38.6728741 L57,36.9931061 C57,36.5293222 56.6229327,36.1532221 56.1579559,36.1532221 L41.0011623,36.1532221 L41.0011623,36.1532221 Z M25.8443687,44.5520622 C25.379392,44.5520622 25.0023246,44.9281623 25.0023246,45.3919462 L25.0023246,53.7907864 C25.0023246,54.2545703 25.379392,54.6306704 25.8443687,54.6306704 L34.2648096,54.6306704 C34.7297863,54.6306704 35.1068537,54.2545703 35.1068537,53.7907864 L35.1068537,45.3919462 C35.1068537,44.9281623 34.7297863,44.5520622 34.2648096,44.5520622 L25.8443687,44.5520622 L25.8443687,44.5520622 Z M26.6864128,46.2318303 L33.4227655,46.2318303 L33.4227655,52.9509024 L26.6864128,52.9509024 L26.6864128,46.2318303 L26.6864128,46.2318303 Z M41.0011623,47.9174775 C40.5361856,47.9174775 40.1591182,48.2935775 40.1591182,48.7573615 L40.1591182,50.4371295 C40.1591182,50.9009135 40.5361856,51.2770135 41.0011623,51.2770135 L56.1579559,51.2770135 C56.6229327,51.2770135 57,50.9009135 57,50.4371295 L57,48.7573615 C57,48.2935775 56.6229327,47.9174775 56.1579559,47.9174775 L41.0011623,47.9174775 L41.0011623,47.9174775 Z M25.8443687,56.3104384 C25.379392,56.3104384 25.0023246,56.6865385 25.0023246,57.1503224 L25.0023246,65.5491626 C25.0023246,66.0129465 25.379392,66.3890466 25.8443687,66.3890466 L34.2648096,66.3890466 C34.7297863,66.3890466 35.1068537,66.0129465 35.1068537,65.5491626 L35.1068537,57.1503224 C35.1068537,56.6865385 34.7297863,56.3104384 34.2648096,56.3104384 L25.8443687,56.3104384 L25.8443687,56.3104384 L25.8443687,56.3104384 Z M26.6864128,57.9902064 L33.4227655,57.9902064 L33.4227655,64.7092785 L26.6864128,64.7092785 L26.6864128,57.9902064 L26.6864128,57.9902064 Z M41.0011623,59.6699745 C40.5361856,59.6699745 40.1591182,60.0460745 40.1591182,60.5098585 L40.1591182,62.1896265 C40.1591182,62.6534105 40.5361856,63.0295105 41.0011623,63.0295105 L56.1579559,63.0295105 C56.6229327,63.0295105 57,62.6534105 57,62.1896265 L57,60.5098585 C57,60.0460745 56.6229327,59.6699745 56.1579559,59.6699745 L41.0011623,59.6699745 L41.0011623,59.6699745 Z" id="Shape" fill="#FFFFFF" sketch:type="MSShapeGroup"></path>
        </g>
    </g>
</svg>