<?xml version="1.0" encoding="UTF-8" standalone="no"?>
<svg width="14px" height="25px" viewBox="0 0 14 25" version="1.1" xmlns="http://www.w3.org/2000/svg" xmlns:xlink="http://www.w3.org/1999/xlink" xmlns:sketch="http://www.bohemiancoding.com/sketch/ns">
    <!-- Generator: Sketch 3.5.2 (25235) - http://www.bohemiancoding.com/sketch -->
    <title>Group</title>
    <desc>Created with Sketch.</desc>
    <defs></defs>
    <g id="2-0_registration" stroke="none" stroke-width="1" fill="none" fill-rule="evenodd" sketch:type="MSPage">
        <g id="-2-10_db-contract" sketch:type="MSArtboardGroup" transform="translate(-944.000000, -335.000000)" fill="#010002">
            <g id="sidebar" sketch:type="MSLayerGroup" transform="translate(913.000000, 145.000000)">
                <g id="contact" transform="translate(4.000000, 81.000000)" sketch:type="MSShapeGroup">
                    <g id="Group" transform="translate(27.000000, 109.000000)">
                        <path d="M12.034247,0 L1.30702658,0 C0.595121816,0 0.0163012182,0.561666667 0.0163012182,1.25128205 L0.0163012182,23.7182051 C0.0163012182,24.4073077 0.595121816,24.9689744 1.30702658,24.9689744 L12.034247,24.9689744 C12.7466611,24.9689744 13.3249723,24.4073077 13.3249723,23.7182051 L13.3249723,1.25128205 C13.3249723,0.561153846 12.7461517,0 12.034247,0 L12.034247,0 Z M0.898604651,21.8282051 L12.443433,21.8282051 L12.443433,23.7176923 C12.443433,23.9182051 12.2592802,24.0810256 12.0341196,24.0810256 L1.30702658,24.0810256 C1.081866,24.0810256 0.898604651,23.9182051 0.898604651,23.7176923 L0.898604651,21.8282051 L0.898604651,21.8282051 Z M12.443433,3.71461538 L12.443433,20.9398718 L0.898604651,20.9398718 L0.898604651,3.71461538 L12.443433,3.71461538 L12.443433,3.71461538 Z M1.30702658,0.887820513 L12.034247,0.887820513 C12.2594075,0.887820513 12.4435604,1.05064103 12.4435604,1.25115385 L12.4435604,2.82628205 L0.898604651,2.82628205 L0.898604651,1.25128205 C0.898604651,1.05076923 1.081866,0.887820513 1.30702658,0.887820513 L1.30702658,0.887820513 Z" id="Shape"></path>
                        <path d="M6.67063677,23.6589744 C7.06899779,23.6589744 7.39260244,23.3332051 7.39260244,22.9321795 C7.39260244,22.5325641 7.06899779,22.2062821 6.67063677,22.2062821 C6.27227575,22.2062821 5.9486711,22.5325641 5.9486711,22.9321795 C5.9486711,23.3335897 6.27227575,23.6589744 6.67063677,23.6589744 L6.67063677,23.6589744 Z" id="Shape"></path>
                    </g>
                </g>
            </g>
        </g>
    </g>
</svg>