<?xml version="1.0" encoding="UTF-8" standalone="no"?>
<svg width="60px" height="60px" viewBox="0 0 60 60" version="1.1" xmlns="http://www.w3.org/2000/svg" xmlns:xlink="http://www.w3.org/1999/xlink" xmlns:sketch="http://www.bohemiancoding.com/sketch/ns">
    <!-- Generator: Sketch 3.3.2 (12043) - http://www.bohemiancoding.com/sketch -->
    <title>icon + Fill 27</title>
    <desc>Created with Sketch.</desc>
    <defs></defs>
    <g id="App" stroke="none" stroke-width="1" fill="none" fill-rule="evenodd" sketch:type="MSPage">
        <g id="onboard-01" sketch:type="MSArtboardGroup" transform="translate(-178.000000, -514.000000)">
            <g id="goal-2" sketch:type="MSLayerGroup" transform="translate(150.000000, 486.000000)">
                <g id="icon-+-Fill-27" transform="translate(28.000000, 28.000000)" sketch:type="MSShapeGroup">
                    <g id="icon" fill="#EF233C">
                        <circle id="inner" cx="30" cy="30" r="30"></circle>
                    </g>
                    <path d="M25.5628678,22.7856008 C25.6446583,22.9359509 25.7998196,23.0207483 25.9591907,23.0207483 C26.0325615,23.0207483 26.1065338,23.0033077 26.174492,22.9660209 C26.3934018,22.8469436 26.4745908,22.5733064 26.3555136,22.3543967 L23.9228489,17.8823833 C23.8037716,17.6634735 23.5295331,17.5834873 23.3112247,17.7013617 C23.092315,17.8210404 23.0111259,18.0946776 23.1302032,18.3135874 L25.5628678,22.7856008 L25.5628678,22.7856008 Z M18.2348039,23.2649169 L22.5672924,25.9399459 C22.6412647,25.9850509 22.7230551,26.0067013 22.8042442,26.0067013 C22.9551957,26.0067013 23.1031402,25.9309249 23.188539,25.7926028 C23.3190429,25.5809098 23.2534903,25.3024614 23.0411959,25.1713562 L18.7087074,22.4969286 C18.4970145,22.3670261 18.2185661,22.4319773 18.0880622,22.6442717 C17.9569569,22.8559646 18.023111,23.134413 18.2348039,23.2649169 L18.2348039,23.2649169 Z M30,21.992955 C30.2489798,21.992955 30.4510503,21.7908845 30.4510503,21.5419047 L30.4510503,16.4510503 C30.4510503,16.2020705 30.2489798,16 30,16 C29.7510202,16 29.5489497,16.2020705 29.5489497,16.4510503 L29.5489497,21.5419047 C29.5489497,21.7908845 29.7510202,21.992955 30,21.992955 L30,21.992955 Z M21.9941578,30.0006014 C21.9941578,29.7516216 21.7920873,29.5495511 21.5431075,29.5495511 L16.4510503,29.5495511 C16.2020705,29.5495511 16,29.7516216 16,30.0006014 C16,30.2495812 16.2020705,30.4516517 16.4510503,30.4516517 L21.5431075,30.4516517 C21.7920873,30.4516517 21.9941578,30.2495812 21.9941578,30.0006014 L21.9941578,30.0006014 Z M37.0339791,26.1738906 C37.1157696,26.3242407 37.2709309,26.4096396 37.430302,26.4096396 C37.5030714,26.4096396 37.5770437,26.392199 37.6456033,26.3549122 L42.1182181,23.9234503 C42.3371279,23.804373 42.4183169,23.5307359 42.2986383,23.3118261 C42.1801624,23.0929164 41.9059238,23.0129301 41.687014,23.1308046 L37.2143992,25.5622664 C36.9960909,25.6813437 36.9149018,25.9549809 37.0339791,26.1738906 L37.0339791,26.1738906 Z M34.2067958,23.1879376 C34.2801667,23.2342455 34.3625585,23.2558959 34.4431462,23.2558959 C34.5940977,23.2558959 34.7420422,23.1801194 34.827441,23.0417973 L37.5030714,18.7099102 C37.6341767,18.4982173 37.5686241,18.2197689 37.3563297,18.089265 C37.1452382,17.9575583 36.8673912,18.0237124 36.7356845,18.2354053 L34.0600541,22.5672924 C33.9289488,22.7795868 33.9945015,23.0580351 34.2067958,23.1879376 L34.2067958,23.1879376 Z M41.7657975,36.7362859 L37.4327076,34.0606555 C37.221616,33.9295502 36.9431677,33.9945015 36.8120624,34.2067958 C36.6809571,34.4184888 36.7465097,34.6969372 36.9588041,34.827441 L41.291894,37.5030714 C41.3652648,37.5487779 41.4470553,37.5710297 41.5282443,37.5710297 C41.6791958,37.5710297 41.8271403,37.4952532 41.9125392,37.3569311 C42.0436445,37.1452382 41.9774904,36.8667898 41.7657975,36.7362859 L41.7657975,36.7362859 Z M22.9660209,33.825508 C22.847545,33.6071996 22.5733064,33.5272134 22.3543967,33.6444864 L17.8817819,36.0759483 C17.6634735,36.1950256 17.5822845,36.4692641 17.7013617,36.6881739 C17.7831522,36.838524 17.9383135,36.9233214 18.0976846,36.9233214 C18.1704541,36.9233214 18.2444263,36.9058808 18.312986,36.8691954 L22.7856008,34.4377336 C23.0045105,34.3180549 23.0856996,34.0444177 22.9660209,33.825508 L22.9660209,33.825508 Z M30,38.0064436 C29.7510202,38.0064436 29.5489497,38.2085141 29.5489497,38.4574939 L29.5489497,43.5495511 C29.5489497,43.7985309 29.7510202,44.0006014 30,44.0006014 C30.2489798,44.0006014 30.4510503,43.7985309 30.4510503,43.5495511 L30.4510503,38.4574939 C30.4510503,38.2085141 30.2489798,38.0064436 30,38.0064436 L30,38.0064436 Z M43.5489497,29.5495511 L38.4580953,29.5495511 C38.2091155,29.5495511 38.007045,29.7516216 38.007045,30.0006014 C38.007045,30.2495812 38.2091155,30.4516517 38.4580953,30.4516517 L43.5489497,30.4516517 C43.7985309,30.4516517 44,30.2495812 44,30.0006014 C44,29.7516216 43.7985309,29.5495511 43.5489497,29.5495511 L43.5489497,29.5495511 Z M34.4365308,37.2143992 C34.3180549,36.9954895 34.0432149,36.9155032 33.8249066,37.0333777 C33.6059968,37.152455 33.5254092,37.4260922 33.6444864,37.6456033 L36.0765497,42.1194209 C36.1583401,42.269771 36.3135014,42.3551699 36.4728725,42.3551699 C36.545642,42.3551699 36.6202156,42.3371279 36.6881739,42.3004425 C36.9070836,42.1813652 36.9882727,41.9071266 36.8691954,41.6882168 L34.4365308,37.2143992 L34.4365308,37.2143992 Z M25.7932042,36.8126638 C25.5821126,36.6815585 25.3036642,36.7465097 25.1719576,36.9588041 L22.4969286,41.2906912 C22.3658233,41.5029855 22.4319773,41.7814339 22.6436703,41.9113364 C22.7176425,41.9570428 22.799433,41.9792946 22.880622,41.9792946 C23.0315735,41.9792946 23.1789166,41.9035182 23.2643155,41.7651961 L25.9399459,37.433309 C26.0704498,37.2210146 26.0048971,36.9431677 25.7932042,36.8126638 L25.7932042,36.8126638 Z M35.5268697,29.9993986 C35.5268697,26.9515014 33.0478972,24.4725289 30.0006014,24.4725289 C26.9527042,24.4725289 24.4731303,26.9515014 24.4731303,29.9993986 C24.4731303,33.0472958 26.9527042,35.5268697 30.0006014,35.5268697 C33.0478972,35.5268697 35.5268697,33.0472958 35.5268697,29.9993986 L35.5268697,29.9993986 Z M25.3752309,29.9993986 C25.3752309,27.4488595 27.4500623,25.3746295 30.0006014,25.3746295 C32.5505391,25.3746295 34.6247691,27.4488595 34.6247691,29.9993986 C34.6247691,32.5499377 32.5505391,34.6247691 30.0006014,34.6247691 C27.4500623,34.6247691 25.3752309,32.5499377 25.3752309,29.9993986 L25.3752309,29.9993986 Z" id="Fill-27" stroke="#FFFFFF" stroke-width="0.5" fill="#FFFFFF"></path>
                </g>
            </g>
        </g>
    </g>
</svg>