<?xml version="1.0" encoding="UTF-8" standalone="no"?>
<svg width="26px" height="25px" viewBox="0 0 26 25" version="1.1" xmlns="http://www.w3.org/2000/svg" xmlns:xlink="http://www.w3.org/1999/xlink" xmlns:sketch="http://www.bohemiancoding.com/sketch/ns">
    <!-- Generator: Sketch 3.3 (11970) - http://www.bohemiancoding.com/sketch -->
    <title>Fill 116</title>
    <desc>Created with Sketch.</desc>
    <defs></defs>
    <g id="3-1_dashboard" stroke="none" stroke-width="1" fill="none" fill-rule="evenodd" sketch:type="MSPage">
        <g sketch:type="MSArtboardGroup" transform="translate(-735.000000, -92.000000)" id="nav-//-desktop" fill="#ffffff">
            <g sketch:type="MSLayerGroup">
                <g id="content" transform="translate(16.000000, 6.000000)" sketch:type="MSShapeGroup">
                    <g id="links" transform="translate(96.000000, 81.000000)">
                        <g id="transfer" transform="translate(623.000000, 0.000000)">
                            <path d="M9.31366131,5.01897687 C3.82992252,6.60794597 0,11.6417857 0,17.2611932 C0,21.9090631 2.54409721,26.1366949 6.65996279,28.3978045 L3.30763253,29.1078206 C3.05965193,29.1607261 2.90167911,29.4006045 2.95556131,29.6440902 C3.00209594,29.8557122 3.19252055,30 3.40376328,30 C3.43621506,30 3.46866684,29.9963928 3.50111862,29.9891784 L7.92803146,29.0513079 C8.05294021,29.0248551 8.16070461,28.9491041 8.22622047,28.8408882 C8.29112404,28.7332736 8.30826837,28.6040158 8.27214281,28.4831748 L6.99611426,24.2176675 C6.92386313,23.9783903 6.66914726,23.8431205 6.42545275,23.9122584 C6.18237053,23.9819975 6.04276664,24.2326975 6.11440548,24.4719747 L7.04264889,27.574763 C3.25681181,25.4651555 0.918446648,21.5561593 0.918446648,17.2611932 C0.918446648,12.038577 4.47773356,7.36064719 9.57388786,5.88410231 C9.81697007,5.81316082 9.95596166,5.56246082 9.88432282,5.32378479 C9.81268398,5.08450757 9.55735582,4.94923778 9.31366131,5.01897687 L9.31366131,5.01897687 Z M19.3400372,6.60253518 L22.6923675,5.8919179 C22.9403481,5.83901238 23.0977086,5.59973516 23.0444387,5.35624954 C22.9911688,5.11216272 22.7450251,4.95705337 22.4988814,5.01056008 L18.0713562,5.94903181 C17.9470598,5.97548457 17.8392954,6.05123565 17.7737795,6.15945148 C17.708876,6.26646491 17.6917316,6.39632391 17.7278572,6.51656372 L19.0038857,10.7826722 C19.0632786,10.9786631 19.2457434,11.1061173 19.4447401,11.1061173 C19.487601,11.1061173 19.5310741,11.1001053 19.573935,11.0880813 C19.8176295,11.0183422 19.9566211,10.7676422 19.8855945,10.528365 L18.9573511,7.42557669 C22.7438005,9.53518417 25.0815534,13.4441804 25.0815534,17.7391465 C25.0815534,22.9617627 21.5222664,27.6396925 16.4261121,29.1162374 C16.1830299,29.1865777 16.0440383,29.4372777 16.1156772,29.6765549 C16.1744578,29.8725458 16.3575348,30 16.5559193,30 C16.5987801,30 16.6428656,29.993988 16.6863387,29.9813628 C22.1700775,28.3923937 26,23.358554 26,17.7391465 C26,13.0906754 23.4559028,8.86364483 19.3400372,6.60253518 L19.3400372,6.60253518 Z" id="Fill-116"></path>
                        </g>
                    </g>
                </g>
            </g>
        </g>
    </g>
</svg>
