<?xml version="1.0" encoding="utf-8"?>
<!-- Generator: Adobe Illustrator 19.2.1, SVG Export Plug-In . SVG Version: 6.00 Build 0)  -->
<svg version="1.1" id="Layer_1" xmlns="http://www.w3.org/2000/svg" xmlns:xlink="http://www.w3.org/1999/xlink" x="0px" y="0px"
	 viewBox="0 0 89.8 59.9" style="enable-background:new 0 0 89.8 59.9;" xml:space="preserve">
<style type="text/css">
	.st0{fill:none;}
</style>
<g>
	<g>
		<path class="st0" d="M79.7,27H45.1c-1.7,0-3.1,1.4-3.1,3.1c0,1.7,1.4,3.1,3.1,3.1h34.6c1.7,0,3.1-1.4,3.1-3.1
			C82.8,28.4,81.4,27,79.7,27z"/>
		<path class="st0" d="M79.7,39.1H45.1c-1.7,0-3.1,1.4-3.1,3.1c0,1.7,1.4,3.1,3.1,3.1h34.6c1.7,0,3.1-1.4,3.1-3.1
			C82.8,40.5,81.4,39.1,79.7,39.1z"/>
		<path class="st0" d="M79.7,14.6H45.1c-1.7,0-3.1,1.4-3.1,3.1c0,1.7,1.4,3.1,3.1,3.1h34.6c1.7,0,3.1-1.4,3.1-3.1
			C82.8,16,81.4,14.6,79.7,14.6z"/>
		<path class="st0" d="M30.5,36.3c-1.3-1.5-4-2.7-6-2.7h-5.8c-2,0-4.6,1.2-6,2.7l-4.6,5.2c-1.3,1.5-0.8,2.7,1.1,2.7H34
			c2,0,2.5-1.2,1.1-2.7L30.5,36.3z"/>
		<path d="M79.3,0H10.5C4.7,0,0,4.8,0,10.5v38.9c0,5.8,4.7,10.5,10.5,10.5h53.7h16.1c5.3-0.5,9.5-5,9.5-10.4v-39
			C89.8,4.8,85.1,0,79.3,0z M21.6,14.1c4.7,0,8.6,3.8,8.6,8.6c0,4.7-3.8,8.6-8.6,8.6c-4.7,0-8.6-3.8-8.6-8.6
			C13,18,16.9,14.1,21.6,14.1z M34.1,44.3H9.3c-2,0-2.5-1.2-1.1-2.7l4.6-5.2c1.3-1.5,4-2.7,6-2.7h5.8c2,0,4.7,1.2,6,2.7l4.6,5.2
			C36.5,43.1,36,44.3,34.1,44.3z M79.7,45.4H45.1c-1.7,0-3.1-1.4-3.1-3.1c0-1.7,1.4-3.1,3.1-3.1h34.6c1.7,0,3.1,1.4,3.1,3.1
			C82.8,43.9,81.4,45.4,79.7,45.4z M79.7,33.3H45.1c-1.7,0-3.1-1.4-3.1-3.1c0-1.7,1.4-3.1,3.1-3.1h34.6c1.7,0,3.1,1.4,3.1,3.1
			C82.8,31.9,81.4,33.3,79.7,33.3z M79.7,20.9H45.1c-1.7,0-3.1-1.4-3.1-3.1c0-1.7,1.4-3.1,3.1-3.1h34.6c1.7,0,3.1,1.4,3.1,3.1
			C82.8,19.5,81.4,20.9,79.7,20.9z"/>
	</g>
</g>
</svg>
