<?xml version="1.0" encoding="UTF-8" standalone="no"?>
<svg width="30px" height="31px" viewBox="0 0 30 31" version="1.1" xmlns="http://www.w3.org/2000/svg" xmlns:xlink="http://www.w3.org/1999/xlink" xmlns:sketch="http://www.bohemiancoding.com/sketch/ns">
    <!-- Generator: Sketch 3.3 (11970) - http://www.bohemiancoding.com/sketch -->
    <title>Path</title>
    <desc>Created with Sketch.</desc>
    <defs></defs>
    <g id="3-1_dashboard" stroke="none" stroke-width="1" fill="none" fill-rule="evenodd" sketch:type="MSPage">
        <g sketch:type="MSArtboardGroup" transform="translate(-1111.000000, -29.000000)" id="nav-//-desktop" fill="#252731">
            <g sketch:type="MSLayerGroup">
                <g id="content" transform="translate(16.000000, 6.000000)" sketch:type="MSShapeGroup">
                    <g id="avatar" transform="translate(1095.000000, 23.000000)">
                        <path d="M5.97943225,26.7085336 C2.86821912,24.0312847 0.885,20.0000471 0.885,15.4987022 C0.885,7.4563122 7.2157679,0.9145 14.999188,0.9145 C22.7816396,0.9145 29.1124075,7.4563122 29.1124075,15.4987022 C29.1124075,19.9982527 27.1307693,24.0280706 24.0220347,26.7053312 C23.8606549,25.1081308 23.4730804,22.5833529 22.5609435,21.1866882 C22.5249178,21.1393571 22.1591708,20.6864323 21.3351251,20.3601669 L21.1743817,20.3101767 C20.3318084,19.9077739 19.5911365,19.6511756 19.4520086,19.6043763 C19.2872337,19.5479158 19.1276054,19.4840986 18.9370122,19.3973249 C18.7484775,19.3009787 18.5877341,19.211546 18.4399428,19.1194542 L18.3703788,19.0758458 L18.386762,19.0583847 L18.2302216,18.9794996 C18.108163,18.9194051 17.8454325,18.7219263 17.6935239,18.578249 L17.5236026,18.4930707 L17.4608149,18.5484676 C16.6598427,19.2605611 15.7932523,19.6362849 14.9526519,19.6362849 C14.1524518,19.6362849 13.2753967,19.2132301 12.482659,18.4409534 L12.3971408,18.3579024 L12.3131665,18.4403329 C12.1625447,18.5846307 12.0353395,18.7261808 11.9521372,18.8188043 C11.9176555,18.8549674 11.8761401,18.9007031 11.8339385,18.9241913 C10.934153,19.5979059 9.28794853,20.1631313 8.62198713,20.3745257 C7.86458899,20.673137 7.49009292,21.1265936 7.42293066,21.2144309 C6.52182925,22.5976179 6.13782252,25.1161655 5.97943225,26.7085336 Z M15.0005147,0 C6.72832023,0 0,6.95261745 0,15.5000443 C0,24.0474712 6.72832023,31 15.0010293,31 C23.2716798,31 30,24.0474712 30,15.5000443 C30,6.95261745 23.2716798,0 15.0005147,0 Z M10.9003574,12.5530195 L10.9305504,12.5189836 C11.0528663,12.4271578 11.1123946,12.2834804 11.0901787,12.1330669 C10.7880772,10.2548027 10.9863903,9.47162394 11.0532952,9.27494289 C11.5812437,7.60053924 13.2385132,6.82613531 13.5637741,6.68883971 C13.6330808,6.66065378 13.7610579,6.6206794 13.8908363,6.59993881 L13.9295211,6.59063214 L14.1957684,6.57600737 L14.197827,6.59302528 L14.2595854,6.58690947 C14.3144818,6.58079365 14.3669764,6.57334832 14.4329378,6.55898945 L14.4916941,6.54604874 C14.5436741,6.54684645 15.188792,6.63113833 16.1473338,6.93480182 L16.813381,7.17163452 C18.0314796,7.54336967 18.5918513,8.23498852 18.6958971,8.37441136 C19.6714224,9.51638461 19.4097212,11.2407784 19.1681773,12.1665709 C19.1409006,12.2756806 19.1573695,12.3879811 19.2170693,12.4811365 L19.272223,12.551424 C19.3428163,12.6506952 19.4062044,13.0334211 19.1945104,13.8462926 C19.1542816,14.0932297 19.0657613,14.2938993 18.9349535,14.4290677 C18.8865761,14.4839328 18.8525232,14.5538658 18.8402573,14.6329282 C18.5105361,16.6301405 16.778985,18.8644514 14.9533381,18.8644514 C13.4042316,18.8644514 11.6363117,16.8090059 11.3182559,14.6345236 C11.3061615,14.553334 11.2734811,14.4817169 11.2190994,14.4202928 C11.0867477,14.2783882 11.0022588,14.0740846 10.9513081,13.7717506 C10.795797,13.2028912 10.7806147,12.7443824 10.9003574,12.5530195 Z" id="Path"></path>
                    </g>
                </g>
            </g>
        </g>
    </g>
</svg>
