<?xml version="1.0" encoding="UTF-8" standalone="no"?>
<svg width="42px" height="42px" viewBox="0 0 42 42" version="1.1" xmlns="http://www.w3.org/2000/svg" xmlns:xlink="http://www.w3.org/1999/xlink">
    <!-- Generator: Sketch 3.6 (26304) - http://www.bohemiancoding.com/sketch -->
    <title>Shape</title>
    <desc>Created with Sketch.</desc>
    <defs></defs>
    <g id="Page-1" stroke="none" stroke-width="1" fill="none" fill-rule="evenodd">
        <path d="M41.0890205,12.1163156 L11.7470379,41.458764 C11.308375,41.8969612 10.6550374,41.91 10.5819269,41.91 L1.50412005,41.91 C0.675224169,41.9090687 0.000931343682,41.2338445 0.000931343682,40.4049486 L0,31.3285388 C0,31.3010641 0.000465671841,30.6123355 0.450770342,30.1624965 L29.7918217,0.820979455 C30.3212906,0.291976244 31.0253864,0 31.7732554,0 C32.5206587,0 33.2238232,0.291510572 33.753292,0.820513783 L41.0890205,8.15577662 C41.6184894,8.68571117 41.91,9.38840998 41.91,10.136279 C41.91,10.8841479 41.6184894,11.5873124 41.0890205,12.1163156 L41.0890205,12.1163156 Z M2.71393549,30.3194279 L4.7130647,32.3185571 L26.4259456,10.6052105 L24.4268164,8.60608129 L2.71393549,30.3194279 L2.71393549,30.3194279 Z M5.92381149,33.5293039 L8.38069612,35.9861885 L30.0940427,14.2728419 L27.6366924,11.8150259 L5.92381149,33.5293039 L5.92381149,33.5293039 Z M10.1726014,40.198656 L1.71274103,31.73833 L1.71180969,36.8118247 L5.09817531,40.1981903 L10.1726014,40.1981903 L10.1726014,40.198656 Z M33.303453,17.4822522 L31.3043238,15.4835887 L9.59097723,37.1964696 L11.5901064,39.1955988 L33.303453,17.4822522 L33.303453,17.4822522 Z M36.0541766,14.7315287 L27.1780056,5.85535773 L25.6375632,7.39580018 L34.5128028,16.2729025 L36.0541766,14.7315287 L36.0541766,14.7315287 Z M39.8787394,9.36652341 L32.5430109,2.0307949 C32.1318227,1.62007233 31.4146881,1.62053801 31.0021028,2.03172624 L28.3878211,4.64507661 L37.263992,13.5212476 L39.8787394,10.9069659 C40.3029665,10.4818075 40.3029665,9.79075045 39.8787394,9.36652341 L39.8787394,9.36652341 Z" id="Shape" fill="#000000"></path>
    </g>
</svg>