<?xml version="1.0" encoding="utf-8"?>
<!-- Generator: Adobe Illustrator 19.2.1, SVG Export Plug-In . SVG Version: 6.00 Build 0)  -->
<svg version="1.1" id="Layer_1" xmlns="http://www.w3.org/2000/svg" xmlns:xlink="http://www.w3.org/1999/xlink" x="0px" y="0px"
	 viewBox="0 0 64 42" style="enable-background:new 0 0 64 42;" xml:space="preserve">
<style type="text/css">
	.st0{display:none;}
	.st1{display:inline;}
	.st2{fill:#231F20;}
	.st3{display:inline;fill:#231F20;}
</style>
<g>
	<g>
		<g>
			<g>
				<path d="M58,0H6C2.7,0,0,2.7,0,6v30c0,3.3,2.7,6,6,6h52c3.3,0,6-2.7,6-6V6C64,2.7,61.3,0,58,0z M6,3h52c1.7,0,3,1.3,3,3v4H3V6
					C3,4.3,4.3,3,6,3z M58,39H6c-1.7,0-3-1.3-3-3V18h58v18C61,37.7,59.7,39,58,39z"/>
				<path d="M53,24h-8c-1.7,0-3,1.3-3,3v4c0,1.7,1.3,3,3,3h8c1.7,0,3-1.3,3-3v-4C56,25.3,54.7,24,53,24z M54,31c0,0.6-0.4,1-1,1h-8
					c-0.6,0-1-0.4-1-1v-4c0-0.6,0.4-1,1-1h8c0.6,0,1,0.4,1,1V31z"/>
			</g>
			<g class="st0">
				<g class="st1">
					<path class="st2" d="M59,2c1.7,0,3,1.3,3,3v31c0,1.7-1.3,3-3,3H5c-1.7,0-3-1.3-3-3V5c0-1.7,1.3-3,3-3H59 M59,0H5
						C2.2,0,0,2.2,0,5v31c0,2.8,2.2,5,5,5h54c2.8,0,5-2.2,5-5V5C64,2.2,61.8,0,59,0L59,0z"/>
				</g>
				<rect x="1" y="9" class="st3" width="62" height="8"/>
				<g class="st1">
					<path class="st2" d="M53,26c0.6,0,1,0.4,1,1v4c0,0.6-0.4,1-1,1h-8c-0.6,0-1-0.4-1-1v-4c0-0.6,0.4-1,1-1H53 M53,24h-8
						c-1.7,0-3,1.3-3,3v4c0,1.7,1.3,3,3,3h8c1.7,0,3-1.3,3-3v-4C56,25.3,54.7,24,53,24L53,24z"/>
				</g>
			</g>
		</g>
	</g>
</g>
</svg>
