<?xml version="1.0" encoding="UTF-8" standalone="no"?>
<svg width="52px" height="52px" viewBox="0 0 52 52" version="1.1" xmlns="http://www.w3.org/2000/svg" xmlns:xlink="http://www.w3.org/1999/xlink" xmlns:sketch="http://www.bohemiancoding.com/sketch/ns">
    <!-- Generator: Sketch 3.4.3 (16044) - http://www.bohemiancoding.com/sketch -->
    <title>User</title>
    <desc>Created with Sketch.</desc>
    <defs></defs>
    <g id="2-0_registration" stroke="none" stroke-width="1" fill="none" fill-rule="evenodd" sketch:type="MSPage">
        <g id="2-11_account-type" sketch:type="MSArtboardGroup" transform="translate(-263.000000, -307.000000)">
            <g id="tiles" sketch:type="MSLayerGroup" transform="translate(172.000000, 262.000000)">
                <g id="tile" transform="translate(0.000000, 32.000000)" sketch:type="MSShapeGroup">
                    <g id="content" transform="translate(71.000000, 14.000000)">
                        <g id="User" transform="translate(21.000000, 0.000000)">
                            <g id="Group">
                                <circle id="Oval" stroke="#FFFFFF" stroke-width="2" fill="#EF233C" cx="25" cy="25" r="25"></circle>
                                <path d="M20.526506,21.9795181 L20.5614458,21.9415663 C20.7042169,21.8379518 20.773494,21.676506 20.7481928,21.5066265 C20.3957831,19.3909639 20.626506,18.5066265 20.7048193,18.286747 C21.3192771,16.3993976 23.2493976,15.526506 23.6283133,15.3722892 C23.7090361,15.3403614 23.8584337,15.2951807 24.0096386,15.2716867 L24.0542169,15.2608434 L24.3644578,15.2445783 L24.3668675,15.2638554 L24.4391566,15.2578313 C24.5012048,15.25 24.5620482,15.2421687 24.6391566,15.2259036 L24.7072289,15.2108434 C24.7674699,15.2108434 25.5192771,15.3072289 26.6349398,15.6481928 L27.4120482,15.9150602 C28.8301205,16.3331325 29.4825301,17.1138554 29.6036145,17.2704819 C30.739759,18.5572289 30.4349398,20.5006024 30.1536145,21.5439759 C30.1222892,21.6668675 30.1415663,21.7939759 30.2108434,21.8993976 L30.2759036,21.9777108 C30.3572289,22.089759 30.4325301,22.5210843 30.1855422,23.4373494 C30.1373494,23.7156627 30.0349398,23.9415663 29.8825301,24.0939759 C29.8259036,24.1560241 29.7861446,24.2349398 29.7716867,24.3240964 C29.3885542,26.5740964 27.3716867,29.0927711 25.2457831,29.0927711 C23.4409639,29.0927711 21.3819277,26.7759036 21.0108434,24.3253012 C20.9975904,24.2349398 20.9590361,24.1536145 20.8963855,24.0843373 C20.7415663,23.9240964 20.6433735,23.6939759 20.5843373,23.3536145 C20.4036145,22.7114458 20.3855422,22.1945783 20.5240964,21.9801205 L20.526506,21.9795181 Z M30.1662651,41.1445783 C26.5608434,42.3674699 22.839759,41.7680723 20.2445783,41.1445783 C17.6506024,40.5216867 15.0120482,37.9518072 15.0120482,37.9518072 C15.0120482,37.9518072 14.8837349,31.9036145 17.7168675,30.9680723 C20.5512048,30.0331325 22.4180723,28.5403614 22.4180723,28.5403614 C22.4180723,28.5403614 24.3120482,29.6951807 25.2313253,29.6951807 C26.273494,29.6951807 28.3048193,28.539759 28.3048193,28.539759 C28.3048193,28.539759 29.4614458,29.3831325 30.1662651,29.6951807 C31.2837349,30.1915663 32.6542169,30.4722892 33.7716867,30.9680723 C33.7716867,30.9680723 35.4524096,32.3271084 35.4524096,37.246988 C35.4524096,38.5240964 33.7716867,39.9216867 30.1680723,41.1445783 L30.1662651,41.1445783 Z" id="Shape" fill="#FFFFFF"></path>
                                <circle id="Oval" stroke="#FFFFFF" stroke-width="2" cx="25.3012048" cy="25.3012048" r="16.8674699"></circle>
                            </g>
                        </g>
                    </g>
                </g>
            </g>
        </g>
    </g>
</svg>