<?xml version="1.0" encoding="utf-8"?>
<!-- Generator: Adobe Illustrator 19.2.1, SVG Export Plug-In . SVG Version: 6.00 Build 0)  -->
<svg version="1.1" id="Layer_1" xmlns="http://www.w3.org/2000/svg" xmlns:xlink="http://www.w3.org/1999/xlink" x="0px" y="0px"
	 viewBox="0 0 40 48" style="enable-background:new 0 0 40 48;" xml:space="preserve">
<path d="M30,0c-5.5,0-10,4.5-10,10s4.5,10,10,10s10-4.5,10-10S35.5,0,30,0z M30.6,13.4v1.1h-0.8v-1.1c-0.4,0-0.8-0.1-1.2-0.2
	c-0.4-0.1-0.8-0.3-1.1-0.6l0.7-1.4c0.4,0.4,1.1,0.8,1.6,0.8c0.4,0,0.9-0.2,0.9-0.7c0-0.5-0.7-0.6-1.4-0.9c-0.7-0.3-1.4-0.7-1.4-1.8
	c0-1.1,0.7-2.1,1.9-2.1V5.5h0.8v1.1c0.6,0.1,1.2,0.2,1.7,0.5l-0.7,1.3C31.2,8.1,30.8,8,30.4,8c-0.4,0-0.8,0.1-0.8,0.5
	c0,0.4,0.6,0.6,0.9,0.7c1,0.3,2,0.7,2,2C32.5,12.4,31.8,13.1,30.6,13.4z"/>
<rect x="8" y="31.5" width="20" height="1"/>
<rect x="8" y="27.5" width="20" height="1"/>
<rect x="8" y="35.5" width="20" height="1"/>
<rect x="8" y="23.5" width="20" height="1"/>
<path d="M8,15.5v1h10.8c-0.2-0.3-0.4-0.7-0.5-1H8z"/>
<path d="M8,19.5v1h14.4c-0.4-0.3-0.8-0.6-1.2-1H8z"/>
<path d="M34,45c0,0.6-0.4,1-1,1H3c-0.6,0-1-0.4-1-1V7c0-0.6,0.4-1,1-1h14.6c0.2-0.7,0.5-1.4,0.8-2H3C1.3,4,0,5.3,0,7v38
	c0,1.7,1.3,3,3,3h30c1.7,0,3-1.3,3-3V21.5c-0.6,0.3-1.3,0.6-2,0.8V45z"/>
</svg>
